<?xml version="1.0" encoding="UTF-8"?>
<svg xmlns="http://www.w3.org/2000/svg" xmlns:xlink="http://www.w3.org/1999/xlink" width="985px" height="960px" viewBox="0 0 984 960" version="1.1">
<g id="surface1">
<path style=" stroke:none;fill-rule:nonzero;fill:rgb(16.470589%,23.921569%,40.392157%);fill-opacity:1;" d="M 517.601562 -1.46875 C 525.742188 -1.523438 533.886719 -1.625 542.023438 -1.773438 C 607.414062 -2.953125 668.191406 4.066406 730.546875 24.871094 C 732.183594 16.664062 733.824219 8.457031 735.515625 0 C 740.433594 0 745.355469 0 750.425781 0 C 750.320312 5.640625 750.21875 11.285156 750.113281 17.097656 C 752.539062 38.917969 761.90625 47.851562 777.757812 62.488281 C 793.082031 76.722656 799.613281 83.175781 806.953125 103.210938 C 804.515625 124.363281 796.492188 131.160156 780.242188 144.25 C 783.320312 153.894531 786.433594 163.53125 789.5625 173.160156 C 792.15625 181.210938 792.15625 181.210938 794.800781 189.421875 C 799.722656 204.601562 799.722656 204.601562 810.0625 218.859375 C 810.0625 225.425781 810.0625 231.992188 810.0625 238.757812 C 813.339844 238.757812 816.621094 238.757812 820 238.757812 C 821.71875 242.824219 821.71875 242.824219 823.476562 246.976562 C 841.152344 287.882812 858.378906 322.398438 889.265625 355.027344 C 916.457031 383.867188 936.636719 414.886719 949.210938 452.640625 C 954.132812 454.285156 959.050781 455.925781 964.121094 457.617188 C 969.042969 459.257812 973.960938 460.898438 979.03125 462.589844 C 980.671875 467.515625 982.308594 472.4375 984 477.511719 C 979.078125 479.976562 979.078125 479.976562 974.0625 482.488281 C 972.277344 490.75 970.636719 499.046875 969.089844 507.359375 C 966.324219 512.28125 966.324219 512.28125 963.5 517.304688 C 957.738281 530.488281 960.917969 538.390625 964.121094 552.125 C 923.601562 571.621094 883.609375 577.839844 839.257812 583.210938 C 832.539062 584.074219 825.824219 584.941406 819.105469 585.816406 C 802.84375 587.910156 786.578125 589.941406 770.304688 591.917969 C 772.84375 597.34375 772.84375 597.34375 775.433594 602.878906 C 777.660156 607.699219 779.886719 612.519531 782.183594 617.488281 C 785.492188 624.605469 785.492188 624.605469 788.867188 631.871094 C 816.964844 697.863281 824.675781 767.132812 801.695312 835.414062 C 782.3125 880.316406 740.703125 911.394531 697.078125 931.417969 C 648.832031 949.902344 601.863281 956.570312 550.414062 956.523438 C 542.582031 956.554688 542.582031 956.554688 534.589844 956.585938 C 523.585938 956.613281 512.582031 956.617188 501.578125 956.597656 C 485.054688 956.582031 468.539062 956.695312 452.019531 956.824219 C 292.367188 957.296875 292.367188 957.296875 238.546875 930.15625 C 234.195312 919.894531 234.195312 919.894531 233.574219 910.257812 C 238.546875 905.285156 238.546875 905.285156 248.234375 905.175781 C 252.371094 905.410156 256.511719 905.644531 260.773438 905.886719 C 265.242188 906.128906 269.710938 906.367188 274.3125 906.617188 C 279.011719 906.894531 283.710938 907.171875 288.554688 907.460938 C 293.269531 907.722656 297.988281 907.980469 302.851562 908.246094 C 314.546875 908.894531 326.246094 909.566406 337.9375 910.257812 C 330.558594 905.335938 330.558594 905.335938 323.03125 900.3125 C 323.03125 897.027344 323.03125 893.746094 323.03125 890.363281 C 327.949219 890.363281 332.871094 890.363281 337.9375 890.363281 C 337.9375 885.4375 337.9375 880.515625 337.9375 875.441406 C 343.78125 876.160156 349.625 876.875 355.644531 877.617188 C 360.574219 878.222656 360.574219 878.222656 365.601562 878.839844 C 375.007812 880.066406 384.390625 881.460938 393.761719 882.925781 C 470.597656 893.03125 563.6875 895.421875 636.121094 865.492188 C 641.425781 863.324219 646.730469 861.15625 652.195312 858.925781 C 691.316406 841.097656 726.324219 817.113281 750.425781 780.933594 C 757.019531 719.820312 742.960938 665.769531 705.695312 616.789062 C 692.261719 603.832031 684.574219 597.359375 665.839844 595.011719 C 660.324219 595.292969 654.808594 595.570312 649.128906 595.863281 C 642.960938 596.125 636.796875 596.386719 630.445312 596.660156 C 623.914062 597.042969 617.382812 597.429688 610.652344 597.824219 C 603.882812 598.148438 597.113281 598.460938 590.34375 598.765625 C 570.808594 599.671875 551.285156 600.753906 531.757812 601.867188 C 518.238281 602.59375 504.71875 603.320312 491.195312 604.039062 C 484.09375 604.429688 476.992188 604.851562 469.894531 605.316406 C 334.082031 613.691406 183.5 616.152344 56.335938 561.839844 C 45.28125 556.472656 45.28125 556.472656 34.789062 557.097656 C 31.507812 563.664062 28.226562 570.230469 24.847656 576.996094 C 16.648438 576.996094 8.449219 576.996094 0 576.996094 C 0.960938 573.207031 1.921875 569.414062 2.910156 565.511719 C 4.207031 560.375 5.5 555.238281 6.832031 549.949219 C 8.203125 544.511719 9.574219 539.074219 10.988281 533.472656 C 15.078125 516.617188 18.589844 499.714844 21.742188 482.660156 C 24.847656 472.539062 24.847656 472.539062 31.410156 461.792969 C 45.191406 438.472656 54.164062 412.949219 63.925781 387.726562 C 75.21875 359.800781 86.21875 337.371094 114.304688 323.316406 C 111.84375 311.003906 111.84375 311.003906 109.332031 298.445312 C 117.414062 299.011719 125.488281 299.648438 133.5625 300.3125 C 138.058594 300.65625 142.554688 301.003906 147.1875 301.359375 C 159.03125 303.417969 159.03125 303.417969 168.96875 313.367188 C 167.3125 336.195312 156.460938 355.886719 146.605469 376.164062 C 134.328125 401.503906 134.328125 401.503906 124.242188 427.773438 C 129.015625 426.507812 133.789062 425.246094 138.703125 423.945312 C 181.015625 413.15625 223.191406 405.125 266.5 399.480469 C 270.992188 398.890625 275.480469 398.296875 280.109375 397.6875 C 356.976562 388.171875 433.472656 387.050781 510.820312 387.058594 C 528.253906 387.046875 545.6875 386.957031 563.117188 386.863281 C 646.59375 386.644531 727.035156 389.8125 808.195312 410.984375 C 812.769531 412.125 817.34375 413.265625 822.058594 414.441406 C 832.980469 417.175781 843.890625 419.960938 854.789062 422.796875 C 849.003906 412.53125 843.207031 402.273438 837.394531 392.019531 C 835.609375 388.863281 833.828125 385.703125 831.992188 382.449219 C 820.082031 361.519531 807.382812 341.316406 794.21875 321.140625 C 762.359375 269.640625 748.410156 213.96875 740.484375 154.195312 C 736.90625 155.179688 733.332031 156.164062 729.644531 157.175781 C 692.582031 166.964844 656.191406 173.144531 618.105469 177.203125 C 612.441406 177.824219 606.78125 178.445312 600.945312 179.082031 C 554.6875 184.003906 508.679688 187.746094 462.183594 189.015625 C 457.421875 189.175781 452.660156 189.339844 447.753906 189.507812 C 349.367188 192.542969 203.273438 196.921875 122.28125 129.347656 C 114.304688 119.378906 114.304688 119.378906 112.128906 104.144531 C 114.601562 87.53125 116.824219 85.082031 129.210938 74.613281 C 239.507812 4.914062 391.039062 -0.855469 517.601562 -1.46875 Z M 284.515625 76.476562 C 281.230469 77.394531 277.949219 78.3125 274.566406 79.261719 C 251.117188 86.699219 236.464844 98.0625 218.667969 114.402344 C 221.140625 128.113281 221.140625 128.113281 228.605469 139.273438 C 253.824219 140.742188 279.136719 140.496094 304.394531 140.519531 C 308.183594 140.523438 311.972656 140.527344 315.875 140.535156 C 458.191406 140.40625 596.441406 123.242188 730.546875 74.613281 C 730.546875 68.046875 730.546875 61.480469 730.546875 54.714844 C 722.316406 52.8125 714.023438 51.164062 705.695312 49.742188 C 704.058594 51.382812 702.417969 53.023438 700.726562 54.714844 C 693.417969 54.449219 686.121094 53.816406 678.847656 53.023438 C 674.425781 52.558594 670.003906 52.09375 665.445312 51.617188 C 658.464844 50.839844 658.464844 50.839844 651.339844 50.050781 C 642.183594 49.070312 633.027344 48.09375 623.871094 47.117188 C 619.792969 46.667969 615.710938 46.222656 611.507812 45.757812 C 507.789062 35.644531 384.675781 48.023438 284.515625 76.476562 Z M 79.515625 517.304688 C 81.15625 522.230469 82.796875 527.15625 84.484375 532.226562 C 127.179688 549.480469 174.382812 554.058594 219.910156 557.605469 C 225.261719 558.023438 230.609375 558.441406 236.125 558.871094 C 296.074219 563.167969 355.980469 563.746094 416.0625 563.644531 C 434.835938 563.625 453.601562 563.746094 472.375 563.871094 C 606.800781 564.21875 767.304688 559.984375 889.574219 497.410156 C 887.9375 492.484375 886.296875 487.5625 884.605469 482.488281 C 871.203125 476.691406 858.40625 471.949219 844.539062 467.566406 C 838.472656 465.609375 838.472656 465.609375 832.289062 463.617188 C 652.394531 407.398438 223.898438 361.574219 79.515625 517.304688 Z M 402.546875 910.257812 C 402.546875 911.902344 402.546875 913.542969 402.546875 915.234375 C 424.601562 920.761719 446.128906 920.78125 468.703125 920.519531 C 474.226562 920.484375 474.226562 920.484375 479.855469 920.449219 C 488.875 920.390625 497.890625 920.300781 506.910156 920.207031 C 506.910156 918.566406 506.910156 916.925781 506.910156 915.234375 C 472.46875 913.589844 438.027344 911.949219 402.546875 910.257812 Z M 591.394531 910.257812 C 611.273438 915.234375 611.273438 915.234375 611.273438 915.234375 Z M 521.816406 915.234375 C 521.816406 916.875 521.816406 918.515625 521.816406 920.207031 C 539.859375 920.207031 557.898438 920.207031 576.484375 920.207031 C 576.484375 918.566406 576.484375 916.925781 576.484375 915.234375 C 558.445312 915.234375 540.40625 915.234375 521.816406 915.234375 Z M 521.816406 915.234375 "/>
<path style=" stroke:none;fill-rule:nonzero;fill:rgb(3.921569%,12.54902%,26.274511%);fill-opacity:1;" d="M 109.332031 298.445312 C 117.414062 299.011719 125.488281 299.648438 133.5625 300.3125 C 138.058594 300.65625 142.554688 301.003906 147.1875 301.359375 C 159.03125 303.417969 159.03125 303.417969 168.96875 313.367188 C 150.910156 324.9375 135.320312 324.125 114.304688 323.316406 C 112.664062 315.109375 111.023438 306.902344 109.332031 298.445312 Z M 109.332031 298.445312 "/>
<path style=" stroke:none;fill-rule:nonzero;fill:rgb(5.490196%,12.941177%,24.705882%);fill-opacity:1;" d="M 313.089844 865.492188 C 319.652344 867.132812 326.210938 868.773438 332.96875 870.464844 C 331.328125 875.390625 329.691406 880.316406 328 885.386719 C 323.078125 885.386719 318.160156 885.386719 313.089844 885.386719 C 313.089844 878.824219 313.089844 872.257812 313.089844 865.492188 Z M 313.089844 865.492188 "/>
</g>
</svg>
