<?xml version="1.0" encoding="UTF-8"?>
<svg xmlns="http://www.w3.org/2000/svg" xmlns:xlink="http://www.w3.org/1999/xlink" width="960px" height="960px" viewBox="0 0 960 960" version="1.1">
<g id="surface1">
<path style=" stroke:none;fill-rule:nonzero;fill:rgb(0%,0%,0%);fill-opacity:1;" d="M 346.382812 301.304688 C 248.824219 301.304688 169.8125 377.597656 169.8125 471.800781 C 169.8125 565.941406 248.824219 642.277344 346.382812 642.277344 C 443.851562 642.277344 522.90625 565.941406 522.90625 471.800781 C 522.929688 377.597656 443.894531 301.304688 346.382812 301.304688 Z M 346.382812 598.988281 C 273.628906 598.8125 214.824219 542.03125 214.644531 471.824219 C 214.800781 401.59375 273.628906 344.789062 346.382812 344.613281 C 419.089844 344.789062 477.894531 401.59375 478.050781 471.824219 C 477.894531 542.03125 419.089844 598.8125 346.382812 598.988281 Z M 346.382812 289.890625 C 358.785156 289.890625 368.808594 280.1875 368.808594 268.210938 L 368.808594 163.160156 C 368.765625 151.183594 358.761719 141.503906 346.382812 141.503906 C 333.980469 141.503906 323.933594 151.226562 323.953125 163.203125 L 323.953125 268.234375 C 323.953125 280.167969 333.980469 289.890625 346.382812 289.890625 Z M 418.441406 303.707031 C 421.242188 304.855469 424.160156 305.351562 427.007812 305.375 C 435.84375 305.375 444.164062 300.328125 447.753906 291.992188 L 489.378906 194.90625 C 494.085938 183.839844 488.683594 171.195312 477.242188 166.625 C 465.785156 162.054688 452.664062 167.296875 447.910156 178.339844 L 406.308594 275.445312 C 401.574219 286.492188 407.003906 299.160156 418.441406 303.707031 Z M 479.554688 343.140625 C 483.925781 347.34375 489.667969 349.488281 495.410156 349.488281 C 501.152344 349.488281 506.894531 347.367188 511.265625 343.140625 L 588.191406 268.796875 C 596.960938 260.351562 596.9375 246.644531 588.191406 238.152344 C 579.398438 229.707031 565.203125 229.707031 556.457031 238.199219 L 479.554688 312.5 C 470.785156 320.964844 470.785156 334.675781 479.554688 343.140625 Z M 520.4375 402.132812 C 523.980469 410.472656 532.347656 415.496094 541.140625 415.496094 C 543.988281 415.496094 546.902344 414.953125 549.730469 413.804688 L 650.203125 373.589844 C 661.664062 369.023438 667.089844 356.332031 662.335938 345.285156 C 657.582031 334.242188 644.484375 329 633.023438 333.59375 L 532.527344 373.808594 C 521.089844 378.398438 515.683594 391.089844 520.4375 402.132812 Z M 665.96875 450.015625 L 557.175781 450.035156 C 544.792969 450.035156 534.746094 459.738281 534.792969 471.714844 C 534.792969 483.691406 544.816406 493.347656 557.175781 493.347656 L 665.992188 493.304688 C 678.394531 493.304688 688.394531 483.582031 688.394531 471.648438 C 688.394531 459.671875 678.347656 449.972656 665.96875 450.015625 Z M 650.3125 569.730469 L 549.796875 529.578125 C 538.3125 524.988281 525.191406 530.230469 520.484375 541.296875 C 515.75 552.363281 521.179688 565.03125 532.617188 569.621094 L 633.136719 609.773438 C 635.960938 610.875 638.875 611.394531 641.726562 611.394531 C 650.539062 611.394531 658.882812 606.371094 662.46875 598.035156 C 667.179688 586.96875 661.730469 574.277344 650.3125 569.730469 Z M 511.402344 600.328125 C 502.632812 591.863281 488.457031 591.863281 479.6875 600.351562 C 470.917969 608.796875 470.941406 622.484375 479.6875 630.953125 L 556.703125 705.210938 C 561.078125 709.433594 566.796875 711.554688 572.535156 711.554688 C 578.277344 711.554688 584.042969 709.433594 588.414062 705.210938 C 597.183594 696.722656 597.140625 683.011719 588.414062 674.566406 Z M 447.910156 651.503906 C 443.175781 640.4375 430.058594 635.21875 418.597656 639.785156 C 407.160156 644.378906 401.730469 657.046875 406.488281 668.113281 L 448.199219 765.132812 C 451.765625 773.46875 460.109375 778.492188 468.945312 778.492188 C 471.816406 778.492188 474.730469 777.972656 477.535156 776.847656 C 488.996094 772.277344 494.402344 759.589844 489.644531 748.5 Z M 346.605469 653.734375 C 334.203125 653.734375 324.179688 663.433594 324.179688 675.390625 L 324.269531 780.441406 C 324.269531 792.417969 334.339844 802.078125 346.695312 802.078125 C 359.097656 802.078125 369.121094 792.375 369.078125 780.421875 L 369.011719 675.347656 C 369.011719 663.433594 358.941406 653.710938 346.605469 653.734375 Z M 274.480469 639.960938 C 263.042969 635.414062 249.945312 640.632812 245.191406 651.71875 L 203.65625 748.804688 C 198.945312 759.871094 204.394531 772.539062 215.832031 777.109375 C 218.636719 778.234375 221.53125 778.753906 224.402344 778.753906 C 233.191406 778.753906 241.558594 773.6875 245.125 765.347656 L 286.679688 668.222656 C 291.414062 657.175781 285.941406 644.53125 274.480469 639.960938 Z M 213.34375 600.609375 C 204.550781 592.144531 190.355469 592.1875 181.609375 600.65625 L 104.773438 675 C 96.003906 683.488281 96.050781 697.152344 104.820312 705.644531 C 109.191406 709.84375 114.910156 711.964844 120.652344 711.964844 C 126.417969 711.964844 132.15625 709.84375 136.53125 705.621094 L 213.390625 631.253906 C 222.113281 622.789062 222.113281 609.078125 213.34375 600.613281 Z M 172.4375 541.683594 C 167.660156 530.664062 154.5625 525.421875 143.125 529.992188 L 42.671875 570.292969 C 31.214844 574.882812 25.808594 587.574219 30.5625 598.617188 C 34.152344 606.957031 42.472656 611.960938 51.285156 611.960938 C 54.132812 611.960938 57.070312 611.4375 59.875 610.3125 L 160.328125 570.011719 C 171.742188 565.375 177.167969 552.707031 172.4375 541.683594 Z M 157.949219 472.125 C 157.949219 460.148438 147.925781 450.492188 135.523438 450.492188 L 26.726562 450.621094 C 14.324219 450.621094 4.277344 460.324219 4.324219 472.300781 C 4.34375 484.230469 14.394531 493.957031 26.75 493.910156 L 135.566406 493.78125 C 147.945312 493.78125 157.992188 484.035156 157.949219 472.125 Z M 42.316406 374.175781 L 142.902344 414.238281 C 145.703125 415.386719 148.597656 415.886719 151.445312 415.886719 C 160.257812 415.886719 168.625 410.859375 172.191406 402.5 C 176.945312 391.4375 171.472656 378.746094 159.988281 374.21875 L 59.449219 334.15625 C 47.988281 329.609375 34.890625 334.847656 30.160156 345.894531 C 25.40625 356.960938 30.898438 369.585938 42.316406 374.175781 Z M 181.207031 343.46875 C 185.578125 347.648438 191.277344 349.769531 197.015625 349.769531 C 202.757812 349.769531 208.523438 347.648438 212.917969 343.378906 C 221.6875 334.957031 221.640625 321.226562 212.828125 312.757812 L 135.8125 238.609375 C 127.066406 230.164062 112.824219 230.207031 104.101562 238.675781 C 95.332031 247.121094 95.378906 260.851562 104.144531 269.296875 Z M 244.609375 292.207031 C 248.195312 300.523438 256.539062 305.527344 265.308594 305.527344 C 268.179688 305.527344 271.09375 304.984375 273.917969 303.859375 C 285.359375 299.265625 290.808594 286.578125 286.03125 275.554688 L 244.226562 178.558594 C 239.472656 167.511719 226.328125 162.292969 214.890625 166.882812 C 203.453125 171.496094 198.046875 184.1875 202.804688 195.210938 Z M 244.609375 292.207031 "/>
<path style=" stroke:none;fill-rule:nonzero;fill:rgb(0%,0%,0%);fill-opacity:1;" d="M 759.792969 458.195312 L 804.140625 540.605469 L 804.324219 381.367188 L 804.507812 222.132812 L 832.019531 222.164062 L 859.535156 222.195312 L 859.355469 379.605469 C 859.253906 466.179688 860.566406 537.015625 862.273438 537.015625 C 863.976562 537.019531 884.015625 502.578125 906.804688 460.480469 L 948.238281 383.9375 L 948.15625 454.730469 L 948.074219 525.519531 L 889.695312 633.570312 L 831.3125 741.617188 L 773.292969 633.226562 L 715.269531 524.839844 L 715.441406 375.785156 Z M 759.792969 458.195312 "/>
</g>
</svg>
