<?xml version="1.0" encoding="UTF-8"?>
<svg xmlns="http://www.w3.org/2000/svg" xmlns:xlink="http://www.w3.org/1999/xlink" width="960px" height="960px" viewBox="0 0 960 960" version="1.1">
<g id="surface1">
<path style=" stroke:none;fill-rule:nonzero;fill:rgb(0%,0%,0%);fill-opacity:1;" d="M 667.4375 160.15625 C 637.105469 146.261719 600.574219 158.191406 585.789062 186.933594 C 571.066406 215.671875 583.773438 250.222656 614.105469 264.144531 C 709.253906 307.933594 774.929688 400.054688 774.867188 506.816406 C 774.5625 655.695312 647.1875 776.148438 489.785156 776.40625 C 332.351562 776.117188 204.976562 655.664062 204.671875 506.816406 C 204.609375 399.996094 270.316406 307.789062 365.554688 264.085938 C 395.949219 250.164062 408.5625 215.617188 393.871094 186.875 C 379.148438 158.191406 342.675781 146.175781 312.285156 160.097656 C 176.296875 222.347656 82.519531 354.296875 82.460938 506.816406 C 82.519531 719.53125 264.785156 891.921875 489.785156 891.980469 C 714.753906 891.921875 897.050781 719.53125 897.082031 506.816406 C 897.019531 354.355469 803.367188 222.492188 667.4375 160.15625 Z M 489.785156 444.21875 C 523.507812 444.21875 550.847656 418.394531 550.847656 386.449219 L 550.847656 116.824219 C 550.847656 84.90625 523.507812 59.082031 489.785156 59.082031 C 456 59.082031 428.695312 84.9375 428.695312 116.824219 L 428.695312 386.417969 C 428.695312 418.367188 456 444.21875 489.785156 444.21875 Z M 489.785156 444.21875 "/>
</g>
</svg>
