<?xml version="1.0" encoding="UTF-8"?>
<svg version="1.1" xmlns="http://www.w3.org/2000/svg" width="960" height="960">
<path d="M0 0 C0.95754181 -0.00315216 1.91508362 -0.00630432 2.90164185 -0.009552 C4.44862259 -0.00651566 4.44862259 -0.00651566 6.02685547 -0.00341797 C7.08564911 -0.00437469 8.14444275 -0.00533142 9.23532104 -0.00631714 C11.47296203 -0.00699773 13.71060499 -0.00515186 15.94824219 -0.00097656 C19.3872517 0.00438395 22.82613123 -0.0009311 26.26513672 -0.00732422 C28.43570993 -0.00666362 30.60628305 -0.00538285 32.77685547 -0.00341797 C33.81222443 -0.0054422 34.84759338 -0.00746643 35.91433716 -0.009552 C36.86557465 -0.00639984 37.81681213 -0.00324768 38.796875 0 C39.63832062 0.00079559 40.47976624 0.00159119 41.34671021 0.00241089 C43.26904297 0.12939453 43.26904297 0.12939453 44.26904297 1.12939453 C45.56841797 1.23251953 46.86779297 1.33564453 48.20654297 1.44189453 C53.66535706 1.96846824 58.30043242 3.89922487 63.26904297 6.12939453 C63.59904297 4.47939453 63.92904297 2.82939453 64.26904297 1.12939453 C65.91904297 0.79939453 67.56904297 0.46939453 69.26904297 0.12939453 C69.26904297 0.78939453 69.26904297 1.44939453 69.26904297 2.12939453 C69.92904297 2.12939453 70.58904297 2.12939453 71.26904297 2.12939453 C71.59904297 5.75939453 71.92904297 9.38939453 72.26904297 13.12939453 C72.92904297 13.12939453 73.58904297 13.12939453 74.26904297 13.12939453 C74.26904297 13.78939453 74.26904297 14.44939453 74.26904297 15.12939453 C74.92904297 15.12939453 75.58904297 15.12939453 76.26904297 15.12939453 C76.26904297 15.78939453 76.26904297 16.44939453 76.26904297 17.12939453 C78.24904297 18.11939453 78.24904297 18.11939453 80.26904297 19.12939453 C80.26904297 19.78939453 80.26904297 20.44939453 80.26904297 21.12939453 C80.92904297 21.12939453 81.58904297 21.12939453 82.26904297 21.12939453 C82.26904297 24.09939453 82.26904297 27.06939453 82.26904297 30.12939453 C81.60904297 30.12939453 80.94904297 30.12939453 80.26904297 30.12939453 C80.26904297 30.78939453 80.26904297 31.44939453 80.26904297 32.12939453 C79.27904297 32.45939453 78.28904297 32.78939453 77.26904297 33.12939453 C78.34118963 39.22370185 79.70704114 46.5673927 84.26904297 51.12939453 C84.30968129 52.79556568 84.31176397 54.46327548 84.26904297 56.12939453 C84.92904297 56.12939453 85.58904297 56.12939453 86.26904297 56.12939453 C86.82591797 57.80001953 86.82591797 57.80001953 87.39404297 59.50439453 C89.05822248 63.9928787 91.41604519 67.89218163 93.96435547 71.93017578 C95.26904297 74.12939453 95.26904297 74.12939453 96.26904297 77.12939453 C96.99994141 77.70044922 97.73083984 78.27150391 98.48388672 78.85986328 C101.93492564 81.67200019 104.25730408 84.83938824 106.83154297 88.44189453 C107.30011719 89.080625 107.76869141 89.71935547 108.25146484 90.37744141 C110.5103661 93.49567294 112.57262046 96.60083343 114.40576172 99.98876953 C116.57338029 103.64236561 118.36438416 104.62077636 122.26904297 106.12939453 C121.39404297 111.00439453 121.39404297 111.00439453 120.26904297 112.12939453 C120.33091797 112.89251953 120.39279297 113.65564453 120.45654297 114.44189453 C120.26904297 117.12939453 120.26904297 117.12939453 118.26904297 119.44189453 C117.60904297 119.99876953 116.94904297 120.55564453 116.26904297 121.12939453 C116.89552734 121.10619141 117.52201172 121.08298828 118.16748047 121.05908203 C118.98474609 121.04103516 119.80201172 121.02298828 120.64404297 121.00439453 C121.45615234 120.98119141 122.26826172 120.95798828 123.10498047 120.93408203 C125.26904297 121.12939453 125.26904297 121.12939453 127.26904297 123.12939453 C127.52320493 125.00383897 127.77414676 126.88056427 127.92529297 128.76611328 C128.39308398 131.98217651 129.37561787 135.00569132 130.26904297 138.12939453 C131.05510789 142.01255526 131.77361063 145.90431808 132.48779297 149.80126953 C133.09032339 153.24034407 133.09032339 153.24034407 135.26904297 156.12939453 C135.42723511 155.31486816 135.42723511 155.31486816 135.58862305 154.48388672 C140.43371286 129.63538484 140.43371286 129.63538484 143.26904297 121.12939453 C153.82904297 121.12939453 164.38904297 121.12939453 175.26904297 121.12939453 C175.26904297 148.84939453 175.26904297 176.56939453 175.26904297 205.12939453 C167.34904297 205.12939453 159.42904297 205.12939453 151.26904297 205.12939453 C150.93904297 192.25939453 150.60904297 179.38939453 150.26904297 166.12939453 C149.93904297 168.76939453 149.60904297 171.40939453 149.26904297 174.12939453 C148.93904297 174.45939453 148.60904297 174.78939453 148.26904297 175.12939453 C148.04394521 176.99449027 147.82169856 178.86037898 147.64794922 180.73095703 C147.13919795 183.95130009 146.16670992 186.99578059 145.26904297 190.12939453 C144.67386146 192.76533859 144.15458868 195.41342384 143.64404297 198.06689453 C142.96341797 201.56283203 142.96341797 201.56283203 142.26904297 205.12939453 C136.32904297 205.12939453 130.38904297 205.12939453 124.26904297 205.12939453 C122.35345128 199.71576584 120.97923705 194.81094714 120.26904297 189.12939453 C119.93904297 188.79939453 119.60904297 188.46939453 119.26904297 188.12939453 C118.93570964 185.7960612 118.6023763 183.46272786 118.26904297 181.12939453 C117.93904297 180.79939453 117.60904297 180.46939453 117.26904297 180.12939453 C116.27904297 175.67439453 116.27904297 175.67439453 115.26904297 171.12939453 C114.93904297 182.34939453 114.60904297 193.56939453 114.26904297 205.12939453 C107.33904297 205.12939453 100.40904297 205.12939453 93.26904297 205.12939453 C93.26904297 181.69939453 93.26904297 158.26939453 93.26904297 134.12939453 C87.32904297 135.11939453 81.38904297 136.10939453 75.26904297 137.12939453 C76.25904297 138.77939453 77.24904297 140.42939453 78.26904297 142.12939453 C80.13177678 145.95290078 80.46638453 148.88655092 80.26904297 153.12939453 C80.92904297 153.12939453 81.58904297 153.12939453 82.26904297 153.12939453 C84.27555306 159.82311221 84.63534444 166.03687364 84.64404297 173.00439453 C84.66853516 174.02919922 84.69302734 175.05400391 84.71826172 176.10986328 C84.75230036 185.03933408 82.89871422 193.0588654 76.64404297 199.75439453 C76.05365234 200.40666016 75.46326172 201.05892578 74.85498047 201.73095703 C73.26904297 203.12939453 73.26904297 203.12939453 71.26904297 203.12939453 C71.26904297 203.78939453 71.26904297 204.44939453 71.26904297 205.12939453 C68.79404297 206.11939453 68.79404297 206.11939453 66.26904297 207.12939453 C66.26904297 207.78939453 66.26904297 208.44939453 66.26904297 209.12939453 C65.27904297 209.12939453 64.28904297 209.12939453 63.26904297 209.12939453 C63.26904297 209.78939453 63.26904297 210.44939453 63.26904297 211.12939453 C53.97278903 214.79197879 45.42500461 218.13147398 35.40576172 218.88330078 C33.2194413 219.01172091 33.2194413 219.01172091 31.26904297 220.12939453 C28.4404311 220.2412531 25.63736638 220.29354122 22.80810547 220.29736328 C21.94833099 220.30069168 21.08855652 220.30402008 20.20272827 220.30744934 C18.36839329 220.31252593 16.53404903 220.31485744 14.69970703 220.31469727 C11.96744062 220.31683705 9.23561024 220.3348507 6.50341797 220.35400391 C-2.54744451 220.3837383 -11.50082108 220.13049271 -20.51220703 219.24658203 C-21.30597748 219.16937424 -22.09974792 219.09216644 -22.91757202 219.01261902 C-31.03446444 218.13005873 -40.3624268 216.81365965 -47.73095703 213.12939453 C-47.73095703 210.81939453 -47.73095703 208.50939453 -47.73095703 206.12939453 C-43.44095703 206.12939453 -39.15095703 206.12939453 -34.73095703 206.12939453 C-35.72095703 205.88189453 -36.71095703 205.63439453 -37.73095703 205.37939453 C-42.01190899 204.17127312 -45.82154918 202.22118159 -49.73095703 200.12939453 C-49.73095703 199.46939453 -49.73095703 198.80939453 -49.73095703 198.12939453 C-50.39095703 198.12939453 -51.05095703 198.12939453 -51.73095703 198.12939453 C-51.73095703 197.46939453 -51.73095703 196.80939453 -51.73095703 196.12939453 C-52.39095703 196.12939453 -53.05095703 196.12939453 -53.73095703 196.12939453 C-53.73095703 195.46939453 -53.73095703 194.80939453 -53.73095703 194.12939453 C-54.39095703 194.12939453 -55.05095703 194.12939453 -55.73095703 194.12939453 C-55.73095703 192.80939453 -55.73095703 191.48939453 -55.73095703 190.12939453 C-56.39095703 190.12939453 -57.05095703 190.12939453 -57.73095703 190.12939453 C-58.72095703 188.14939453 -58.72095703 188.14939453 -59.73095703 186.12939453 C-60.22595703 189.09939453 -60.22595703 189.09939453 -60.73095703 192.12939453 C-61.39095703 192.12939453 -62.05095703 192.12939453 -62.73095703 192.12939453 C-62.73095703 193.44939453 -62.73095703 194.76939453 -62.73095703 196.12939453 C-63.39095703 196.12939453 -64.05095703 196.12939453 -64.73095703 196.12939453 C-64.93720703 196.68626953 -65.14345703 197.24314453 -65.35595703 197.81689453 C-67.85758306 202.02417467 -71.32734743 204.47238578 -75.66845703 206.50439453 C-82.28626527 207.85496764 -86.53702853 205.78393532 -92.73095703 203.12939453 C-92.73095703 210.05939453 -92.73095703 216.98939453 -92.73095703 224.12939453 C-100.65095703 224.12939453 -108.57095703 224.12939453 -116.73095703 224.12939453 C-116.73095703 197.06939453 -116.73095703 170.00939453 -116.73095703 142.12939453 C-109.47095703 142.12939453 -102.21095703 142.12939453 -94.73095703 142.12939453 C-94.73095703 143.11939453 -94.73095703 144.10939453 -94.73095703 145.12939453 C-94.24626953 144.85224609 -93.76158203 144.57509766 -93.26220703 144.28955078 C-87.55189237 141.20378459 -82.61928186 139.07801969 -76.14501953 140.82861328 C-71.65357322 142.49479498 -67.58581784 144.10663612 -64.73095703 148.12939453 C-64.73095703 149.11939453 -64.73095703 150.10939453 -64.73095703 151.12939453 C-64.07095703 151.12939453 -63.41095703 151.12939453 -62.73095703 151.12939453 C-62.73095703 152.44939453 -62.73095703 153.76939453 -62.73095703 155.12939453 C-62.07095703 155.12939453 -61.41095703 155.12939453 -60.73095703 155.12939453 C-60.23595703 158.59439453 -60.23595703 158.59439453 -59.73095703 162.12939453 C-59.07095703 162.12939453 -58.41095703 162.12939453 -57.73095703 162.12939453 C-57.63814453 161.13939453 -57.63814453 161.13939453 -57.54345703 160.12939453 C-55.84918729 153.87362932 -52.19845214 148.64421281 -46.73095703 145.12939453 C-42.73228094 143.20146141 -39.07853516 141.92595422 -34.73095703 141.12939453 C-35.49021484 141.06880859 -36.24947266 141.00822266 -37.03173828 140.94580078 C-38.02560547 140.86201172 -39.01947266 140.77822266 -40.04345703 140.69189453 C-41.52265625 140.57007813 -41.52265625 140.57007813 -43.03173828 140.44580078 C-45.73095703 140.12939453 -45.73095703 140.12939453 -48.73095703 139.12939453 C-50.60326161 138.95228464 -52.47905169 138.8107167 -54.35595703 138.69189453 C-59.65566386 138.27835198 -64.59568766 137.47056454 -69.73095703 136.12939453 C-70.60494141 135.91283203 -71.47892578 135.69626953 -72.37939453 135.47314453 C-78.72105963 133.83887789 -84.71111088 131.70186675 -90.73095703 129.12939453 C-90.73095703 128.46939453 -90.73095703 127.80939453 -90.73095703 127.12939453 C-91.39095703 127.12939453 -92.05095703 127.12939453 -92.73095703 127.12939453 C-92.85470703 127.91314453 -92.97845703 128.69689453 -93.10595703 129.50439453 C-93.73095703 132.12939453 -93.73095703 132.12939453 -95.73095703 134.12939453 C-98.35595703 134.25439453 -98.35595703 134.25439453 -100.73095703 134.12939453 C-101.04888366 128.0887885 -100.1886092 124.73284149 -97.73095703 119.12939453 C-97.53910955 117.63458287 -97.39522572 116.13302696 -97.29345703 114.62939453 C-96.92188049 109.9200658 -95.31476649 107.04678307 -92.73095703 103.12939453 C-92.07095703 103.12939453 -91.41095703 103.12939453 -90.73095703 103.12939453 C-90.54146484 101.83195312 -90.54146484 101.83195312 -90.34814453 100.50830078 C-89.74940868 97.23041149 -88.9075687 94.22580555 -87.85595703 91.06689453 C-87.52853516 90.06529297 -87.20111328 89.06369141 -86.86376953 88.03173828 C-85.73601585 85.14235556 -84.51119072 82.66925673 -82.73095703 80.12939453 C-82.07095703 80.12939453 -81.41095703 80.12939453 -80.73095703 80.12939453 C-80.46283203 79.49001953 -80.19470703 78.85064453 -79.91845703 78.19189453 C-78.73095703 76.12939453 -78.73095703 76.12939453 -75.73095703 75.12939453 C-75.73095703 74.46939453 -75.73095703 73.80939453 -75.73095703 73.12939453 C-76.39095703 73.12939453 -77.05095703 73.12939453 -77.73095703 73.12939453 C-77.73095703 71.80939453 -77.73095703 70.48939453 -77.73095703 69.12939453 C-73.25329138 66.44279514 -69.68187273 67.42358359 -64.84033203 68.42626953 C-62.73095703 69.12939453 -62.73095703 69.12939453 -61.73095703 71.12939453 C-62.06095703 71.78939453 -62.39095703 72.44939453 -62.73095703 73.12939453 C-62.07095703 73.12939453 -61.41095703 73.12939453 -60.73095703 73.12939453 C-60.73095703 74.44939453 -60.73095703 75.76939453 -60.73095703 77.12939453 C-61.39095703 77.12939453 -62.05095703 77.12939453 -62.73095703 77.12939453 C-62.73095703 78.11939453 -62.73095703 79.10939453 -62.73095703 80.12939453 C-63.39095703 80.12939453 -64.05095703 80.12939453 -64.73095703 80.12939453 C-64.73095703 81.44939453 -64.73095703 82.76939453 -64.73095703 84.12939453 C-65.39095703 84.12939453 -66.05095703 84.12939453 -66.73095703 84.12939453 C-66.73095703 85.44939453 -66.73095703 86.76939453 -66.73095703 88.12939453 C-67.39095703 88.12939453 -68.05095703 88.12939453 -68.73095703 88.12939453 C-68.87533203 89.24314453 -69.01970703 90.35689453 -69.16845703 91.50439453 C-69.73095703 95.12939453 -69.73095703 95.12939453 -70.73095703 97.12939453 C-69.49345703 96.66533203 -69.49345703 96.66533203 -68.23095703 96.19189453 C-65.48860656 95.35939528 -63.22664086 94.88060155 -60.41845703 94.56689453 C-56.93452037 94.53924861 -56.93452037 94.53924861 -55.73095703 93.12939453 C-54.08988461 92.92100438 -52.4423941 92.76187728 -50.79345703 92.62939453 C-47.12538238 92.3772451 -47.12538238 92.3772451 -43.73095703 91.12939453 C-23.85408449 88.59781275 -3.73871748 88.46412811 16.26904297 88.12939453 C17.57679688 88.10603027 18.88455078 88.08266602 20.23193359 88.05859375 C34.26732003 87.83684508 48.05125714 88.1964973 61.99658203 89.86328125 C63.60108204 90.05117392 65.20748244 90.22316648 66.81494141 90.38378906 C67.6325293 90.46612793 68.45011719 90.5484668 69.29248047 90.63330078 C70.03159668 90.70492432 70.77071289 90.77654785 71.53222656 90.8503418 C73.26904297 91.12939453 73.26904297 91.12939453 74.26904297 92.12939453 C75.78498047 92.31501953 75.78498047 92.31501953 77.33154297 92.50439453 C81.68936077 93.19611164 85.16900527 94.53107475 89.26904297 96.12939453 C89.92904297 96.12939453 90.58904297 96.12939453 91.26904297 96.12939453 C90.52654297 94.70626953 90.52654297 94.70626953 89.76904297 93.25439453 C88.26904297 90.12939453 88.26904297 90.12939453 88.26904297 88.12939453 C87.60904297 88.12939453 86.94904297 88.12939453 86.26904297 88.12939453 C85.96611328 87.56091797 85.66318359 86.99244141 85.35107422 86.40673828 C83.34081521 82.70167629 81.36424757 79.14534741 78.76904297 75.81689453 C71.44625515 65.83127478 67.22941438 51.37412996 66.26904297 39.12939453 C62.63250364 38.93799772 59.37113041 39.24802192 55.83154297 40.00439453 C44.85267292 42.30799673 33.89063053 43.34811926 22.70288086 43.7878418 C21.55613892 43.83509399 21.55613892 43.83509399 20.38623047 43.88330078 C19.71188965 43.907229 19.03754883 43.93115723 18.34277344 43.95581055 C16.22700367 44.08476398 16.22700367 44.08476398 14.03540039 44.63427734 C10.32129851 45.29901996 6.65036145 45.291913 2.89013672 45.29736328 C2.08222183 45.30069168 1.27430695 45.30402008 0.44190979 45.30744934 C-1.26682977 45.31250104 -2.97557915 45.31485821 -4.68432617 45.31469727 C-7.26058905 45.31686685 -9.83641139 45.33499419 -12.41259766 45.35400391 C-21.40304187 45.38502702 -29.89963803 45.00249642 -38.73095703 43.12939453 C-40.20543651 42.86459197 -41.68064559 42.60380155 -43.15673828 42.34814453 C-44.43935547 42.11095703 -45.72197266 41.87376953 -47.04345703 41.62939453 C-48.33896484 41.39220703 -49.63447266 41.15501953 -50.96923828 40.91064453 C-54.63706742 40.14889393 -58.1462025 39.20528464 -61.73095703 38.12939453 C-61.73095703 37.46939453 -61.73095703 36.80939453 -61.73095703 36.12939453 C-62.43220703 36.21189453 -63.13345703 36.29439453 -63.85595703 36.37939453 C-68.46807924 35.97834043 -71.35152828 33.46284233 -74.60595703 30.31689453 C-76.29016998 27.04203603 -76.24789741 24.74797719 -75.73095703 21.12939453 C-73.41845703 18.69189453 -73.41845703 18.69189453 -70.73095703 17.12939453 C-69.74095703 17.12939453 -68.75095703 17.12939453 -67.73095703 17.12939453 C-67.73095703 16.46939453 -67.73095703 15.80939453 -67.73095703 15.12939453 C-59.79326574 11.8037215 -52.2213254 8.73963681 -43.73095703 7.12939453 C-43.40095703 6.79939453 -43.07095703 6.46939453 -42.73095703 6.12939453 C-40.67366533 5.81015961 -38.61482182 5.61778101 -36.54345703 5.41064453 C-34.71420373 5.3094141 -34.71420373 5.3094141 -33.73095703 4.12939453 C-31.41278614 3.80841702 -29.09316346 3.61718497 -26.76220703 3.41064453 C-24.7391511 3.33873616 -24.7391511 3.33873616 -23.73095703 2.12939453 C-21.10186823 1.91765584 -18.48937641 1.75305075 -15.85595703 1.62939453 C-10.44564055 1.37266598 -5.3593239 0.00505772 0 0 Z M17.08154297 13.50439453 C16.36328339 13.52581512 15.6450238 13.54723572 14.90499878 13.56930542 C-9.73422742 13.91887437 -9.73422742 13.91887437 -33.57080078 19.34814453 C-35.06930573 19.8900993 -36.58446928 20.38727015 -38.10986328 20.84814453 C-42.76563008 22.25944781 -46.10100207 23.73363021 -49.73095703 27.12939453 C-49.40095703 28.77939453 -49.07095703 30.42939453 -48.73095703 32.12939453 C-43.25000334 32.15412808 -37.7690822 32.17227049 -32.28808594 32.18432617 C-30.42382237 32.18935245 -28.55956273 32.19617445 -26.6953125 32.20483398 C-24.01447579 32.21697416 -21.33369123 32.22263992 -18.65283203 32.22705078 C-17.82039978 32.23221207 -16.98796753 32.23737335 -16.13031006 32.24269104 C-14.95954926 32.24280434 -14.95954926 32.24280434 -13.76513672 32.24291992 C-12.73921417 32.24625084 -12.73921417 32.24625084 -11.69256592 32.24964905 C-9.59936855 32.12132763 -7.75232868 31.67252189 -5.73095703 31.12939453 C-4.30275229 30.99996712 -2.8708015 30.90786494 -1.43798828 30.84814453 C-0.64328125 30.81076172 0.15142578 30.77337891 0.97021484 30.73486328 C2.6394647 30.66405457 4.30873597 30.59374897 5.97802734 30.52392578 C9.94572925 30.72214831 9.94572925 30.72214831 13.26904297 29.12939453 C15.2441417 28.91995844 17.22475979 28.76135631 19.20654297 28.62939453 C23.39071712 28.4520437 23.39071712 28.4520437 27.26904297 27.12939453 C28.48591797 27.02626953 29.70279297 26.92314453 30.95654297 26.81689453 C42.03522096 25.67328906 53.31852364 22.10465419 63.26904297 17.12939453 C63.26904297 16.13939453 63.26904297 15.14939453 63.26904297 14.12939453 C62.68380859 14.14099609 62.09857422 14.15259766 61.49560547 14.16455078 C56.56428897 14.21638144 51.70140917 14.10304267 46.78344727 13.72045898 C36.86978798 12.98745185 27.00679265 13.19962174 17.08154297 13.50439453 Z M-15.73095703 100.12939453 C-19.10424455 100.44522899 -22.47830068 100.64073215 -25.85986328 100.84814453 C-28.62555524 100.81239251 -28.62555524 100.81239251 -29.73095703 102.12939453 C-32.57068238 102.45290755 -35.4116944 102.64243743 -38.26220703 102.84814453 C-40.67231753 102.86324718 -40.67231753 102.86324718 -41.73095703 104.12939453 C-43.84773744 104.62430375 -45.97501991 105.07450917 -48.10595703 105.50439453 C-60.48209041 107.82218086 -60.48209041 107.82218086 -71.73095703 113.12939453 C-74.04345703 113.81689453 -74.04345703 113.81689453 -75.73095703 114.12939453 C-75.73095703 114.78939453 -75.73095703 115.44939453 -75.73095703 116.12939453 C-76.72095703 116.12939453 -77.71095703 116.12939453 -78.73095703 116.12939453 C-78.73095703 116.78939453 -78.73095703 117.44939453 -78.73095703 118.12939453 C-79.72095703 118.45939453 -80.71095703 118.78939453 -81.73095703 119.12939453 C-81.73095703 119.78939453 -81.73095703 120.44939453 -81.73095703 121.12939453 C-77.75636283 122.93602826 -74.04078575 123.54922528 -69.73095703 124.12939453 C-69.40095703 124.45939453 -69.07095703 124.78939453 -68.73095703 125.12939453 C-66.35451219 125.52688694 -64.00009688 125.8630345 -61.60986328 126.15283203 C-60.88867813 126.24092133 -60.16749298 126.32901062 -59.42445374 126.41976929 C-52.18208146 127.26006773 -44.95610008 127.58031501 -37.66845703 127.75439453 C-36.98162842 127.77274353 -36.2947998 127.79109253 -35.5871582 127.80999756 C-12.3822295 128.4280481 10.88250696 128.58125959 34.08154297 127.69189453 C35.10699219 127.65273926 36.13244141 127.61358398 37.18896484 127.57324219 C41.88787932 127.51443552 41.88787932 127.51443552 46.26904297 126.12939453 C49.38173588 125.8150693 52.49521875 125.61849579 55.61669922 125.41064453 C58.18909702 125.41887456 58.18909702 125.41887456 59.26904297 124.12939453 C61.8480199 123.80702241 64.42836118 123.61672149 67.01904297 123.41064453 C69.23569649 123.36738788 69.23569649 123.36738788 70.26904297 122.12939453 C71.76567643 121.96904095 73.26699536 121.85174947 74.76904297 121.75439453 C79.9757594 121.27434266 84.39893211 119.96566584 89.26904297 118.12939453 C91.28973807 117.39984487 93.31057357 116.67068401 95.33154297 115.94189453 C96.97781973 115.3389372 98.6238149 114.73520748 100.26904297 114.12939453 C100.26904297 113.46939453 100.26904297 112.80939453 100.26904297 112.12939453 C87.36174535 107.20848732 74.42878054 102.96807412 60.52685547 102.30517578 C58.26904297 102.12939453 58.26904297 102.12939453 56.26904297 101.12939453 C53.80683513 100.92180792 51.36043694 100.75551695 48.89404297 100.62939453 C41.7589203 100.26033646 41.7589203 100.26033646 39.36294556 99.61990356 C36.9068466 99.04454789 34.68780649 99.00225239 32.16503906 99 C31.15073822 98.99684784 30.13643738 98.99369568 29.09140015 98.990448 C27.45843491 98.99348434 27.45843491 98.99348434 25.79248047 98.99658203 C24.67088531 98.99562531 23.54929016 98.99466858 22.39370728 98.99368286 C20.0250035 98.99300275 17.65629785 98.99484527 15.28759766 98.99902344 C11.65116218 99.00438404 8.01484965 98.99906756 4.37841797 98.99267578 C2.07893853 98.9933364 -0.22054084 98.99461721 -2.52001953 98.99658203 C-3.61271149 98.9945578 -4.70540344 98.99253357 -5.83120728 98.990448 C-7.34320206 98.99517624 -7.34320206 98.99517624 -8.88574219 99 C-9.77524567 99.00079559 -10.66474915 99.00159119 -11.58120728 99.00241089 C-13.7819622 98.99085778 -13.7819622 98.99085778 -15.73095703 100.12939453 Z M27.96777344 137.50170898 C25.61386944 137.56774096 23.25984734 137.62687871 20.90576172 137.68603516 C19.40965608 137.72793059 17.91356177 137.77023274 16.41748047 137.81298828 C15.36142105 137.83805702 15.36142105 137.83805702 14.2840271 137.8636322 C10.99217609 137.69219226 10.99217609 137.69219226 8.26904297 139.12939453 C5.60477612 139.28942942 2.96343869 139.38882342 0.29638672 139.44580078 C-0.90007729 139.47697243 -0.90007729 139.47697243 -2.12071228 139.5087738 C-4.67820314 139.57435611 -7.23579983 139.6331942 -9.79345703 139.69189453 C-11.52328585 139.73507152 -13.25310382 139.77868554 -14.98291016 139.82275391 C-19.23214963 139.93004625 -23.48149593 140.03128879 -27.73095703 140.12939453 C-24.86124398 141.62033543 -22.41820741 142.49384438 -19.23095703 143.06689453 C-15.68249499 143.79523239 -13.49116868 144.70040828 -10.73095703 147.12939453 C-10.07095703 147.12939453 -9.41095703 147.12939453 -8.73095703 147.12939453 C-8.73095703 147.78939453 -8.73095703 148.44939453 -8.73095703 149.12939453 C-8.07095703 149.12939453 -7.41095703 149.12939453 -6.73095703 149.12939453 C-6.44220703 149.71849609 -6.15345703 150.30759766 -5.85595703 150.91455078 C-4.88098522 152.83402654 -3.81363414 154.70604325 -2.73095703 156.56689453 C-0.37785608 161.22061091 0.21696967 165.94732721 0.87451172 171.07861328 C1.22381691 173.77967622 1.73490977 176.45872854 2.26904297 179.12939453 C-9.94095703 179.12939453 -22.15095703 179.12939453 -34.73095703 179.12939453 C-34.40095703 181.43939453 -34.07095703 183.74939453 -33.73095703 186.12939453 C-30.47332481 188.30114934 -29.5065649 188.58983452 -25.73095703 188.12939453 C-23.36613176 187.00210233 -23.36613176 187.00210233 -21.73095703 185.12939453 C-21.73095703 183.80939453 -21.73095703 182.48939453 -21.73095703 181.12939453 C-14.14095703 181.45939453 -6.55095703 181.78939453 1.26904297 182.12939453 C0.27904297 185.09939453 -0.71095703 188.06939453 -1.73095703 191.12939453 C-1.73095703 192.11939453 -1.73095703 193.10939453 -1.73095703 194.12939453 C-2.39095703 194.12939453 -3.05095703 194.12939453 -3.73095703 194.12939453 C-5.1057841 195.76200168 -6.4374337 197.43164516 -7.73095703 199.12939453 C-8.39095703 199.78939453 -9.05095703 200.44939453 -9.73095703 201.12939453 C-3.47310729 203.35362321 2.35432537 203.43830631 8.95654297 203.37939453 C10.02710938 203.37335205 11.09767578 203.36730957 12.20068359 203.36108398 C21.59351797 203.24302962 30.43926839 202.60088948 39.19482422 198.98486328 C41.77275258 197.92164989 44.39156979 197.0005673 47.01904297 196.06689453 C50.2224703 194.92738967 53.25829113 193.71214959 56.26904297 192.12939453 C56.26904297 191.46939453 56.26904297 190.80939453 56.26904297 190.12939453 C56.97029297 189.94376953 57.67154297 189.75814453 58.39404297 189.56689453 C62.31039325 187.60871939 64.80292937 184.72263222 67.26904297 181.12939453 C67.26904297 180.46939453 67.26904297 179.80939453 67.26904297 179.12939453 C67.92904297 179.12939453 68.58904297 179.12939453 69.26904297 179.12939453 C69.35068456 176.44126963 69.40983965 173.75567153 69.45654297 171.06689453 C69.48167969 170.31472656 69.50681641 169.56255859 69.53271484 168.78759766 C69.60244318 163.41851606 68.64279412 159.94168905 66.26904297 155.12939453 C65.79905154 153.80012583 65.33816505 152.4675286 64.89404297 151.12939453 C63.32313268 146.87380687 61.12820979 143.64836908 58.26904297 140.12939453 C57.60904297 140.12939453 56.94904297 140.12939453 56.26904297 140.12939453 C56.26904297 139.46939453 56.26904297 138.80939453 56.26904297 138.12939453 C49.09449642 134.54212126 36.03553509 137.27107903 27.96777344 137.50170898 Z M-33.10595703 159.94189453 C-34.9297317 161.94280437 -34.9297317 161.94280437 -34.73095703 164.12939453 C-31.10095703 164.12939453 -27.47095703 164.12939453 -23.73095703 164.12939453 C-24.06095703 162.47939453 -24.39095703 160.82939453 -24.73095703 159.12939453 C-29.19650856 157.82449853 -29.19650856 157.82449853 -33.10595703 159.94189453 Z M-90.73095703 159.12939453 C-92.98005919 160.95508699 -92.98005919 160.95508699 -92.97387695 163.61962891 C-92.96976807 164.64378906 -92.96565918 165.66794922 -92.96142578 166.72314453 C-92.95949219 167.83560547 -92.95755859 168.94806641 -92.95556641 170.09423828 C-92.94332031 171.26083984 -92.93107422 172.42744141 -92.91845703 173.62939453 C-92.9178125 174.79599609 -92.91716797 175.96259766 -92.91650391 177.16455078 C-93.16758606 182.82147591 -93.16758606 182.82147591 -91.73095703 188.12939453 C-89.31475881 188.3797043 -89.31475881 188.3797043 -86.73095703 188.12939453 C-82.52097233 181.81441748 -83.23869844 174.49686479 -83.73095703 167.12939453 C-84.46370187 164.18989487 -85.41378841 161.87349583 -86.73095703 159.12939453 C-88.05095703 159.12939453 -89.37095703 159.12939453 -90.73095703 159.12939453 Z M151.26904297 159.12939453 C152.26904297 162.12939453 152.26904297 162.12939453 152.26904297 162.12939453 Z M-30.73095703 207.12939453 C-30.73095703 207.45939453 -30.73095703 207.78939453 -30.73095703 208.12939453 C-28.75095703 208.12939453 -26.77095703 208.12939453 -24.73095703 208.12939453 C-24.73095703 207.79939453 -24.73095703 207.46939453 -24.73095703 207.12939453 C-26.71095703 207.12939453 -28.69095703 207.12939453 -30.73095703 207.12939453 Z " fill="#E28216" transform="translate(344.73095703125,340.87060546875)"/>
<path d="M0 0 C1.11375 0.9590625 1.11375 0.9590625 2.25 1.9375 C2.25 2.5975 2.25 3.2575 2.25 3.9375 C2.91 3.9375 3.57 3.9375 4.25 3.9375 C8.6388853 10.52082795 7.36886895 19.24784756 7.3125 26.875 C7.30798828 28.03580078 7.30347656 29.19660156 7.29882812 30.39257812 C7.2871066 33.2409078 7.26917323 36.08921074 7.25 38.9375 C15.665 38.4425 15.665 38.4425 24.25 37.9375 C24.25 37.2775 24.25 36.6175 24.25 35.9375 C22.6 35.9375 20.95 35.9375 19.25 35.9375 C19.25 35.2775 19.25 34.6175 19.25 33.9375 C18.38375 33.8446875 18.38375 33.8446875 17.5 33.75 C14.30289959 32.59549152 13.1063468 30.72202021 11.25 27.9375 C11.25 26.9475 11.25 25.9575 11.25 24.9375 C10.59 24.9375 9.93 24.9375 9.25 24.9375 C9.19571027 22.70860504 9.15707662 20.47932529 9.125 18.25 C9.10179687 17.00863281 9.07859375 15.76726562 9.0546875 14.48828125 C9.23967979 11.12512143 9.79232105 8.9389413 11.25 5.9375 C11.91 5.9375 12.57 5.9375 13.25 5.9375 C13.25 5.2775 13.25 4.6175 13.25 3.9375 C13.91 3.9375 14.57 3.9375 15.25 3.9375 C15.25 3.2775 15.25 2.6175 15.25 1.9375 C23.98979002 -3.3630208 32.38160183 -6.73636731 42.765625 -4.52734375 C50.52808537 -2.40080146 55.71983373 1.08690983 61.1484375 6.9609375 C62.25 8.9375 62.25 8.9375 62.25 14.9375 C54.825 16.4225 54.825 16.4225 47.25 17.9375 C49.56 18.5975 51.87 19.2575 54.25 19.9375 C56.359375 20.98046875 56.359375 20.98046875 58 22.125 C58.55171875 22.48980469 59.1034375 22.85460937 59.671875 23.23046875 C61.25 24.9375 61.25 24.9375 64.25 31.9375 C64.58 20.3875 64.91 8.8375 65.25 -3.0625 C71.1590625 -3.0934375 71.1590625 -3.0934375 77.1875 -3.125 C78.43136475 -3.134104 79.67522949 -3.14320801 80.95678711 -3.15258789 C82.41483765 -3.15633423 82.41483765 -3.15633423 83.90234375 -3.16015625 C85.40269165 -3.16801147 85.40269165 -3.16801147 86.93334961 -3.17602539 C89.25 -3.0625 89.25 -3.0625 90.25 -2.0625 C90.34915795 -0.16551151 90.37799314 1.73518787 90.37939453 3.63476562 C90.38254669 4.85272827 90.38569885 6.07069092 90.38894653 7.32556152 C90.38715675 8.66495805 90.3851058 10.00435424 90.3828125 11.34375 C90.3834856 12.7075604 90.38445567 14.07137068 90.38571167 15.43518066 C90.38718838 18.29680521 90.38503497 21.1583986 90.38037109 24.02001953 C90.37467381 27.69568614 90.37795296 31.37127974 90.38394356 35.04694366 C90.38754991 37.86412104 90.38641025 40.68128098 90.38381577 43.49845886 C90.3831467 44.85410063 90.38397421 46.20974396 90.38629532 47.56538391 C90.38882301 49.45700044 90.38429014 51.34862249 90.37939453 53.24023438 C90.37859894 54.31865601 90.37780334 55.39707764 90.37698364 56.50817871 C90.25 58.9375 90.25 58.9375 89.25 59.9375 C87.46928754 60.02476223 85.6851686 60.04449041 83.90234375 60.03515625 C82.82275391 60.03193359 81.74316406 60.02871094 80.63085938 60.02539062 C79.49455078 60.01701172 78.35824219 60.00863281 77.1875 60 C76.04732422 59.99548828 74.90714844 59.99097656 73.73242188 59.98632812 C70.90492582 59.9744976 68.07745655 59.9565615 65.25 59.9375 C64.755 52.5125 64.755 52.5125 64.25 44.9375 C63.92 45.96875 63.59 47 63.25 48.0625 C60.72419785 54.02049263 54.94801147 57.32591141 49.25 59.9375 C38.72081442 63.26250597 29.28127386 62.72644775 19.3125 58.0234375 C15.31062044 55.90175136 12.17141593 53.39008246 9.25 49.9375 C9.25 48.9475 9.25 47.9575 9.25 46.9375 C8.59 46.9375 7.93 46.9375 7.25 46.9375 C7.58 47.5975 7.91 48.2575 8.25 48.9375 C8.25 52.5675 8.25 56.1975 8.25 59.9375 C0.66 59.9375 -6.93 59.9375 -14.75 59.9375 C-15.245 57.9575 -15.245 57.9575 -15.75 55.9375 C-16.7709375 56.865625 -16.7709375 56.865625 -17.8125 57.8125 C-23.10595093 61.64180493 -29.28241475 62.92609959 -35.75 61.9375 C-40.34500196 60.42077577 -44.59567259 58.72866323 -47.75 54.9375 C-47.75 54.2775 -47.75 53.6175 -47.75 52.9375 C-48.41 52.9375 -49.07 52.9375 -49.75 52.9375 C-49.75 51.6175 -49.75 50.2975 -49.75 48.9375 C-50.41 48.9375 -51.07 48.9375 -51.75 48.9375 C-52.5765612 33.87571815 -52.5765612 33.87571815 -47.75 27.9375 C-45.56677977 25.9619643 -43.29420099 24.4101434 -40.75 22.9375 C-40.069375 22.525 -39.38875 22.1125 -38.6875 21.6875 C-36.09812855 20.68516267 -33.48598679 20.36813021 -30.75 19.9375 C-31.87019531 19.80472656 -32.99039063 19.67195313 -34.14453125 19.53515625 C-35.61720729 19.35693431 -37.08986247 19.17853989 -38.5625 19 C-39.30048828 18.91298828 -40.03847656 18.82597656 -40.79882812 18.73632812 C-43.91733121 18.35533454 -46.76108122 17.93380626 -49.75 16.9375 C-49.31826373 11.84301202 -48.99599784 8.09237723 -45.75 3.9375 C-45.09 3.9375 -44.43 3.9375 -43.75 3.9375 C-43.75 3.2775 -43.75 2.6175 -43.75 1.9375 C-30.18869109 -5.48016792 -14.05623579 -8.87237578 0 0 Z M32.25 12.9375 C31.59 13.5975 30.93 14.2575 30.25 14.9375 C34.74656104 17.18578052 38.32872966 17.10432272 43.25 16.9375 C42.92 15.9475 42.59 14.9575 42.25 13.9375 C40.62675914 13.71587671 39.001279 13.51060197 37.375 13.3125 C36.47007812 13.19648438 35.56515625 13.08046875 34.6328125 12.9609375 C33.45332031 12.94933594 33.45332031 12.94933594 32.25 12.9375 Z M-27.75 15.9375 C-27.75 16.9275 -27.75 17.9175 -27.75 18.9375 C-25.8628125 18.9684375 -25.8628125 18.9684375 -23.9375 19 C-23.22980469 19.01160156 -22.52210938 19.02320313 -21.79296875 19.03515625 C-19.54694539 19.02013217 -19.54694539 19.02013217 -16.75 17.9375 C-16.75 16.6175 -16.75 15.2975 -16.75 13.9375 C-18.20792884 13.88350264 -19.66642712 13.84470823 -21.125 13.8125 C-22.34316406 13.77769531 -22.34316406 13.77769531 -23.5859375 13.7421875 C-25.96342243 13.72379949 -25.96342243 13.72379949 -27.75 15.9375 Z M-24.75 34.9375 C-26.29400659 36.77322704 -26.29400659 36.77322704 -26.75 38.9375 C-26.45194993 41.13497131 -26.45194993 41.13497131 -25.75 42.9375 C-22.33357241 43.18765873 -22.33357241 43.18765873 -18.75 42.9375 C-16.69074319 39.84861478 -16.5109626 39.22814073 -16.625 35.75 C-16.686875 33.8628125 -16.686875 33.8628125 -16.75 31.9375 C-19.93083904 31.9375 -22.04178403 33.35770735 -24.75 34.9375 Z M26.25 37.9375 C27.47007944 40.6280528 27.47007944 40.6280528 29.25 42.9375 C31.60313555 43.01021741 33.95833668 43.02120868 36.3125 43 C37.60285156 42.99097656 38.89320313 42.98195313 40.22265625 42.97265625 C41.22167969 42.96105469 42.22070312 42.94945312 43.25 42.9375 C43.25 42.2775 43.25 41.6175 43.25 40.9375 C40.35637351 39.49068676 37.4416991 39.50507624 34.24609375 39.21875 C32.25 38.9375 32.25 38.9375 31.25 37.9375 C29.58382885 37.89686168 27.91611905 37.894779 26.25 37.9375 Z " fill="#00446F" transform="translate(692.75,486.0625)"/>
<path d="M0 0 C4.25992991 3.4953271 4.25992991 3.4953271 5.4375 5 C5.4375 5.99 5.4375 6.98 5.4375 8 C6.0975 8 6.7575 8 7.4375 8 C7.46255615 9.30670654 7.4876123 10.61341309 7.51342773 11.9597168 C7.60770534 16.8146317 7.70787625 21.66941032 7.80981445 26.52416992 C7.85308635 28.62407235 7.89476683 30.72400821 7.93481445 32.82397461 C7.99270477 35.84499173 8.0563451 38.86584179 8.12109375 41.88671875 C8.13780624 42.82335861 8.15451874 43.75999847 8.17173767 44.72502136 C8.26689451 48.92597586 8.38467619 52.90485257 9.4375 57 C10.4275 56.01 11.4175 55.02 12.4375 54 C11.7775 53.34 11.1175 52.68 10.4375 52 C10.2421875 48.7421875 10.2421875 48.7421875 10.3125 44.875 C10.33054687 43.59367188 10.34859375 42.31234375 10.3671875 40.9921875 C10.39039063 40.00476563 10.41359375 39.01734375 10.4375 38 C11.0975 38 11.7575 38 12.4375 38 C12.685 37.38125 12.9325 36.7625 13.1875 36.125 C14.64378639 33.64931313 15.81562506 33.04874998 18.4375 32 C18.4375 31.34 18.4375 30.68 18.4375 30 C17.81875 29.731875 17.2 29.46375 16.5625 29.1875 C14.4375 28 14.4375 28 12.4375 25 C11.16985099 18.57997117 11.14349414 13.11734897 13.4375 7 C13.7675 6.01 14.0975 5.02 14.4375 4 C15.0975 4 15.7575 4 16.4375 4 C16.4375 3.34 16.4375 2.68 16.4375 2 C17.74056627 1.19289985 19.05570965 0.40529823 20.375 -0.375 C21.10589844 -0.81585938 21.83679688 -1.25671875 22.58984375 -1.7109375 C31.9759093 -5.95977376 41.93894691 -5.23545796 52 -5.125 C53.5969996 -5.11495088 55.19400532 -5.10582844 56.79101562 -5.09765625 C60.67345389 -5.07750867 64.55503012 -5.03833486 68.4375 -5 C68.4375 0.61 68.4375 6.22 68.4375 12 C66.9525 12.495 66.9525 12.495 65.4375 13 C65.7675 13.33 66.0975 13.66 66.4375 14 C66.26382066 20.46621544 65.36350556 25.7698883 61.0625 30.75 C58.65938669 32.8098114 57.51205169 33.65838315 54.4375 34 C54.4375 34.66 54.4375 35.32 54.4375 36 C49.32513219 38.07434732 44.97419107 38.24424065 39.5625 38.125 C38.386875 38.11146484 38.386875 38.11146484 37.1875 38.09765625 C35.27069945 38.07428063 33.35405809 38.03841653 31.4375 38 C31.4375 38.66 31.4375 39.32 31.4375 40 C32.17798584 39.99887207 32.91847168 39.99774414 33.68139648 39.99658203 C37.08015822 40.00878775 40.47673111 40.06656657 43.875 40.125 C45.03966797 40.12242187 46.20433594 40.11984375 47.40429688 40.1171875 C55.0917812 40.29042658 60.81372211 41.43235866 66.4375 47 C66.4375 47.66 66.4375 48.32 66.4375 49 C67.0975 49 67.7575 49 68.4375 49 C72.70039449 59.11751353 72.50611419 64.91691267 68.4375 75 C67.7775 75 67.1175 75 66.4375 75 C66.4375 75.66 66.4375 76.32 66.4375 77 C65.11163531 77.80411238 63.77626169 78.59254807 62.4375 79.375 C61.695 79.81585937 60.9525 80.25671875 60.1875 80.7109375 C52.98788332 84.08575782 46.18702134 84.28812943 38.375 84.1875 C37.42044922 84.18685547 36.46589844 84.18621094 35.48242188 84.18554688 C21.81613866 84.10066313 21.81613866 84.10066313 16 80.9375 C15.32066406 80.57527344 14.64132812 80.21304688 13.94140625 79.83984375 C13.44511719 79.56269531 12.94882812 79.28554688 12.4375 79 C12.4375 78.34 12.4375 77.68 12.4375 77 C11.7775 77 11.1175 77 10.4375 77 C7.62903415 73.69592253 6.15815074 71.12475421 6.0625 66.8125 C6.4375 63 6.4375 63 8.4375 60 C1.1775 60 -6.0825 60 -13.5625 60 C-14.2225 58.68 -14.8825 57.36 -15.5625 56 C-16.614375 56.928125 -16.614375 56.928125 -17.6875 57.875 C-22.83080099 61.6765703 -28.21583172 62.93469115 -34.5625 62 C-41.71622182 59.78689208 -46.38337463 56.26868806 -50.5625 50 C-50.75809289 47.31059776 -50.84135812 44.74871032 -50.8125 42.0625 C-50.82023438 41.34642578 -50.82796875 40.63035156 -50.8359375 39.89257812 C-50.82191611 36.11030731 -50.67205794 33.20619322 -48.5625 30 C-47.9025 30 -47.2425 30 -46.5625 30 C-46.30984375 29.39542969 -46.0571875 28.79085937 -45.796875 28.16796875 C-43.71120702 24.50484935 -40.27056168 22.82656372 -36.5625 21 C-33.0625 20.1875 -33.0625 20.1875 -30.5625 20 C-31.34753906 19.95101563 -32.13257813 19.90203125 -32.94140625 19.8515625 C-38.75272303 19.4379964 -44.041443 18.88217852 -49.5625 17 C-49.12854691 11.57558638 -48.01318767 8.23941629 -44.5625 4 C-42.3125 2.625 -42.3125 2.625 -40.5625 2 C-40.5625 1.34 -40.5625 0.68 -40.5625 0 C-27.9732411 -5.89284459 -12.35809872 -7.99280017 0 0 Z M35.4375 12 C34.42062954 16.77762638 34.42062954 16.77762638 35.375 21.4375 C35.9009375 22.2109375 35.9009375 22.2109375 36.4375 23 C38.81055578 23.41780879 38.81055578 23.41780879 41.4375 23 C43.5530391 20.94707246 43.5530391 20.94707246 44.4375 18 C43.73809064 14.73185596 43.73809064 14.73185596 42.4375 12 C40.1275 12 37.8175 12 35.4375 12 Z M-25.5625 14 C-26.2225 15.65 -26.8825 17.3 -27.5625 19 C-26.12510487 19.02712066 -24.68756137 19.04645067 -23.25 19.0625 C-22.44949219 19.07410156 -21.64898438 19.08570313 -20.82421875 19.09765625 C-18.39388666 19.09657855 -18.39388666 19.09657855 -15.5625 18 C-15.8925 16.68 -16.2225 15.36 -16.5625 14 C-19.5325 14 -22.5025 14 -25.5625 14 Z M-25.4375 35.8125 C-26.87936389 38.61612422 -26.46527984 40.04544778 -25.5625 43 C-22.56362135 43.96392528 -20.47435125 44.35886391 -17.5625 43 C-15.47007857 39.3382625 -15.36925947 36.15467129 -15.5625 32 C-19.71827235 32 -22.42442179 32.89985773 -25.4375 35.8125 Z M27.4375 62 C28.00875354 65.74275212 28.00875354 65.74275212 29.4375 67 C30.9262186 67.08669432 32.418945 67.10703494 33.91015625 67.09765625 C35.25883789 67.09282227 35.25883789 67.09282227 36.63476562 67.08789062 C38.05305664 67.07532227 38.05305664 67.07532227 39.5 67.0625 C40.44939453 67.05798828 41.39878906 67.05347656 42.37695312 67.04882812 C44.73053065 67.0370011 47.08398477 67.02052025 49.4375 67 C49.1075 65.35 48.7775 63.7 48.4375 62 C41.5075 62 34.5775 62 27.4375 62 Z " fill="#004470" transform="translate(572.5625,486)"/>
<path d="M0 0 C2.5 2 2.5 2 4 4 C4 4.99 4 5.98 4 7 C4.66 7 5.32 7 6 7 C6 8.32 6 9.64 6 11 C6.66 11 7.32 11 8 11 C8.495 14.465 8.495 14.465 9 18 C9.66 18 10.32 18 11 18 C11.0928125 17.01 11.0928125 17.01 11.1875 16 C12.88176975 9.74423478 16.5325049 4.51481828 22 1 C31.44823595 -4.01334969 40.84750889 -4.77318187 51.12890625 -1.99609375 C54.69662668 -0.75831319 57.17671808 0.49937887 60 3 C60 3.66 60 4.32 60 5 C60.66 5 61.32 5 62 5 C63.21875 6.609375 63.21875 6.609375 64.5 8.75 C64.9228125 9.44609375 65.345625 10.1421875 65.78125 10.859375 C66.38453125 11.91898437 66.38453125 11.91898437 67 13 C67.35835938 13.61488281 67.71671875 14.22976563 68.0859375 14.86328125 C69.29380724 17.68680581 69.68278992 20.40169269 70.125 23.4375 C70.29257812 24.54996094 70.46015625 25.66242188 70.6328125 26.80859375 C71 30 71 30 71 35 C58.79 35 46.58 35 34 35 C34.495 38.465 34.495 38.465 35 42 C36.258125 42.20625 37.51625 42.4125 38.8125 42.625 C39.52019531 42.74101563 40.22789062 42.85703125 40.95703125 42.9765625 C43.31755824 43.19577848 43.31755824 43.19577848 46 41 C46.72382467 38.94074861 46.72382467 38.94074861 47 37 C50.0833134 36.97088679 53.16659125 36.95316318 56.25 36.9375 C57.12269531 36.92912109 57.99539063 36.92074219 58.89453125 36.91210938 C59.73886719 36.90888672 60.58320313 36.90566406 61.453125 36.90234375 C62.22817383 36.89710693 63.00322266 36.89187012 63.80175781 36.88647461 C65.99283598 36.99963002 67.89637861 37.39447552 70 38 C69.14285714 46.57142857 69.14285714 46.57142857 67 50 C66.34 50 65.68 50 65 50 C64.773125 50.5775 64.54625 51.155 64.3125 51.75 C61.97528585 55.75665282 59.03137517 57.60331724 54.75 59.25 C50.41744602 60.1165108 46.39759294 60.17949359 42 60 C42 60.99 42 61.98 42 63 C33.53524514 63.65113499 26.30033374 59.84926688 19 56 C19 55.34 19 54.68 19 54 C18.34 54 17.68 54 17 54 C17 53.34 17 52.68 17 52 C16.34 52 15.68 52 15 52 C15 51.34 15 50.68 15 50 C14.34 50 13.68 50 13 50 C13 48.68 13 47.36 13 46 C12.34 46 11.68 46 11 46 C10.34 44.68 9.68 43.36 9 42 C8.67 43.98 8.34 45.96 8 48 C7.34 48 6.68 48 6 48 C6 49.32 6 50.64 6 52 C5.34 52 4.68 52 4 52 C3.79375 52.556875 3.5875 53.11375 3.375 53.6875 C0.87337397 57.89478014 -2.5963904 60.34299125 -6.9375 62.375 C-13.55530824 63.72557311 -17.8060715 61.65454079 -24 59 C-24 65.93 -24 72.86 -24 80 C-31.92 80 -39.84 80 -48 80 C-48 52.94 -48 25.88 -48 -2 C-40.74 -2 -33.48 -2 -26 -2 C-26 -1.01 -26 -0.02 -26 1 C-25.45730469 0.72285156 -24.91460937 0.44570313 -24.35546875 0.16015625 C-23.64003906 -0.20207031 -22.92460937 -0.56429688 -22.1875 -0.9375 C-21.47980469 -1.29714844 -20.77210938 -1.65679687 -20.04296875 -2.02734375 C-13.26975974 -5.25206467 -6.47166381 -3.1866978 0 0 Z M35.625 15.8125 C33.80122533 17.81340984 33.80122533 17.81340984 34 20 C37.63 20 41.26 20 45 20 C44.67 18.35 44.34 16.7 44 15 C39.53444847 13.695104 39.53444847 13.695104 35.625 15.8125 Z M-22 15 C-24.24910216 16.82569246 -24.24910216 16.82569246 -24.24291992 19.49023438 C-24.23881104 20.51439453 -24.23470215 21.53855469 -24.23046875 22.59375 C-24.22853516 23.70621094 -24.22660156 24.81867188 -24.22460938 25.96484375 C-24.21236328 27.13144531 -24.20011719 28.29804687 -24.1875 29.5 C-24.18685547 30.66660156 -24.18621094 31.83320312 -24.18554688 33.03515625 C-24.43662903 38.69208138 -24.43662903 38.69208138 -23 44 C-20.58380177 44.25030977 -20.58380177 44.25030977 -18 44 C-13.7900153 37.68502295 -14.50774141 30.36747026 -15 23 C-15.73274484 20.06050034 -16.68283138 17.7441013 -18 15 C-19.32 15 -20.64 15 -22 15 Z " fill="#004471" transform="translate(276,485)"/>
<path d="M0 0 C1.20462891 -0.02126953 1.20462891 -0.02126953 2.43359375 -0.04296875 C4.5625 0.1875 4.5625 0.1875 6.5625 2.1875 C6.81666196 4.06194444 7.06760379 5.93866974 7.21875 7.82421875 C7.68654102 11.04028198 8.6690749 14.06379679 9.5625 17.1875 C10.34856492 21.07066073 11.06706766 24.96242354 11.78125 28.859375 C12.38378042 32.29844954 12.38378042 32.29844954 14.5625 35.1875 C14.66796143 34.64448242 14.77342285 34.10146484 14.88208008 33.54199219 C19.7271699 8.69349031 19.7271699 8.69349031 22.5625 0.1875 C33.1225 0.1875 43.6825 0.1875 54.5625 0.1875 C54.5625 27.9075 54.5625 55.6275 54.5625 84.1875 C46.6425 84.1875 38.7225 84.1875 30.5625 84.1875 C30.2325 71.3175 29.9025 58.4475 29.5625 45.1875 C29.2325 47.8275 28.9025 50.4675 28.5625 53.1875 C28.2325 53.5175 27.9025 53.8475 27.5625 54.1875 C27.33740224 56.05259573 27.1151556 57.91848444 26.94140625 59.7890625 C26.43265499 63.00940555 25.46016695 66.05388606 24.5625 69.1875 C23.96731849 71.82344406 23.44804571 74.47152931 22.9375 77.125 C22.48375 79.455625 22.03 81.78625 21.5625 84.1875 C15.6225 84.1875 9.6825 84.1875 3.5625 84.1875 C1.64690831 78.7738713 0.27269408 73.86905261 -0.4375 68.1875 C-0.9325 67.6925 -0.9325 67.6925 -1.4375 67.1875 C-1.9375 63.6875 -1.9375 63.6875 -2.4375 60.1875 C-2.9325 59.6925 -2.9325 59.6925 -3.4375 59.1875 C-4.0975 56.2175 -4.7575 53.2475 -5.4375 50.1875 C-5.7675 61.4075 -6.0975 72.6275 -6.4375 84.1875 C-13.3675 84.1875 -20.2975 84.1875 -27.4375 84.1875 C-27.46005243 74.81713746 -27.4784159 65.44679282 -27.48931217 56.07640934 C-27.49454065 51.72581541 -27.50163765 47.37524093 -27.51293945 43.0246582 C-27.52376959 38.82959742 -27.5297771 34.63455541 -27.53237724 30.43948174 C-27.53423126 28.83543032 -27.53785144 27.23137997 -27.54323006 25.6273365 C-27.55044219 23.38833485 -27.55149087 21.1494117 -27.55102539 18.91040039 C-27.553246 17.63354874 -27.55546661 16.35669708 -27.55775452 15.04115295 C-27.4375 12.1875 -27.4375 12.1875 -26.4375 11.1875 C-26.20557135 9.67280552 -26.02534762 8.14995438 -25.875 6.625 C-25.79121094 5.79871094 -25.70742188 4.97242188 -25.62109375 4.12109375 C-25.56050781 3.48300781 -25.49992187 2.84492188 -25.4375 2.1875 C-24.83687744 2.16244385 -24.23625488 2.1373877 -23.61743164 2.11157227 C-20.91138563 1.9959472 -18.20571717 1.87307064 -15.5 1.75 C-14.55447266 1.71068359 -13.60894531 1.67136719 -12.63476562 1.63085938 C-11.73564453 1.58896484 -10.83652344 1.54707031 -9.91015625 1.50390625 C-9.07750244 1.46724854 -8.24484863 1.43059082 -7.38696289 1.39282227 C-4.62066965 1.1014694 -3.10936776 0.02487494 0 0 Z M30.5625 38.1875 C31.5625 41.1875 31.5625 41.1875 31.5625 41.1875 Z " fill="#004470" transform="translate(465.4375,461.8125)"/>
<path d="M0 0 C8.58 0 17.16 0 26 0 C26 20.13 26 40.26 26 61 C34.91 61 43.82 61 53 61 C53.33 60.01 53.66 59.02 54 58 C54.66 58 55.32 58 56 58 C56 56.68 56 55.36 56 54 C56.66 54 57.32 54 58 54 C58 53.34 58 52.68 58 52 C63.20476872 47.4385173 68.20888286 45.06888682 75 44 C73.87980469 43.86722656 72.75960937 43.73445313 71.60546875 43.59765625 C70.13279271 43.41943431 68.66013753 43.24103989 67.1875 43.0625 C66.44951172 42.97548828 65.71152344 42.88847656 64.95117188 42.79882812 C61.83266879 42.41783454 58.98891878 41.99630626 56 41 C56 38.69 56 36.38 56 34 C56.66 34 57.32 34 58 34 C58.144375 33.38125 58.28875 32.7625 58.4375 32.125 C59 30 59 30 60 28 C60.66 28 61.32 28 62 28 C62 27.34 62 26.68 62 26 C74.8175462 19.11844856 85.01036469 17.19386205 99.28125 21.07421875 C102.78447613 22.26712765 105.19965567 23.58859238 108 26 C108 26.66 108 27.32 108 28 C108.66 28 109.32 28 110 28 C112.51178831 31.82515399 112.33044423 35.79541202 112.37890625 40.2109375 C112.39590073 41.01552399 112.4128952 41.82011047 112.43040466 42.64907837 C112.48342084 45.22430538 112.52366766 47.79952336 112.5625 50.375 C112.62133168 53.73708581 112.68578783 57.09902756 112.75390625 60.4609375 C112.77778915 61.68100494 112.77778915 61.68100494 112.80215454 62.92572021 C112.95887031 69.9774854 113.42432168 76.96816069 114 84 C106.41 84 98.82 84 91 84 C90.67 82.68 90.34 81.36 90 80 C89.13375 80.61875 88.2675 81.2375 87.375 81.875 C81.83254926 85.3646912 76.57123191 86.96776324 70 86 C64.31464282 84.24115204 59.70500613 81.78065307 56 77 C56 75.68 56 74.36 56 73 C55.34 73 54.68 73 54 73 C54 76.63 54 80.26 54 84 C36.18 84 18.36 84 0 84 C0 56.28 0 28.56 0 0 Z M78 40 C78 40.99 78 41.98 78 43 C79.8871875 43.0309375 79.8871875 43.0309375 81.8125 43.0625 C82.52019531 43.07410156 83.22789063 43.08570313 83.95703125 43.09765625 C86.20305461 43.08263217 86.20305461 43.08263217 89 42 C88.67 40.68 88.34 39.36 88 38 C82.41335154 37.39578469 82.41335154 37.39578469 78 40 Z M81 59 C78.8480563 62.22791555 78.79913557 63.28400809 79 67 C81.64 67 84.28 67 87 67 C87.52992692 65.54494642 88.0486789 64.08581873 88.5625 62.625 C88.85253906 61.81289063 89.14257812 61.00078125 89.44140625 60.1640625 C90.25973028 57.97232251 90.25973028 57.97232251 89 56 C85.85546537 56 83.70078356 57.48080925 81 59 Z " fill="#004470" transform="translate(23,462)"/>
<path d="M0 0 C0 6.93 0 13.86 0 21 C3.63 21 7.26 21 11 21 C11.02683987 23.97922593 11.04676037 26.95821295 11.0625 29.9375 C11.07087891 30.78763672 11.07925781 31.63777344 11.08789062 32.51367188 C11.09111328 33.32255859 11.09433594 34.13144531 11.09765625 34.96484375 C11.10289307 35.7137085 11.10812988 36.46257324 11.11352539 37.23413086 C11 39 11 39 10 40 C6.7 40 3.4 40 0 40 C0.495 51.385 0.495 51.385 1 63 C5.30569002 64.3588535 5.30569002 64.3588535 11 63 C11 69.93 11 76.86 11 84 C6.545 84.495 6.545 84.495 2 85 C1.01 85.495 1.01 85.495 0 86 C-6.78238078 86.85835109 -11.15743413 85.39931105 -17 82 C-17 81.34 -17 80.68 -17 80 C-18.98 79.01 -18.98 79.01 -21 78 C-21 77.01 -21 76.02 -21 75 C-21.66 75 -22.32 75 -23 75 C-23.84062776 70.63106263 -24.11732956 66.5164802 -24.09765625 62.0703125 C-24.09282227 60.13671875 -24.09282227 60.13671875 -24.08789062 58.1640625 C-24.07953733 56.81770764 -24.07107241 55.47135348 -24.0625 54.125 C-24.0574783 52.75520996 -24.05291657 51.38541815 -24.04882812 50.015625 C-24.03707254 46.6770381 -24.02063964 43.33854185 -24 40 C-25.98 40 -27.96 40 -30 40 C-29.505 48.91 -29.505 48.91 -29 58 C-40.88 58 -52.76 58 -65 58 C-64.67 60.31 -64.34 62.62 -64 65 C-62.741875 65.20625 -61.48375 65.4125 -60.1875 65.625 C-59.12595703 65.79902344 -59.12595703 65.79902344 -58.04296875 65.9765625 C-55.68244176 66.19577848 -55.68244176 66.19577848 -53 64 C-52.27617533 61.94074861 -52.27617533 61.94074861 -52 60 C-48.9166866 59.97088679 -45.83340875 59.95316318 -42.75 59.9375 C-41.87730469 59.92912109 -41.00460937 59.92074219 -40.10546875 59.91210938 C-39.26113281 59.90888672 -38.41679688 59.90566406 -37.546875 59.90234375 C-36.77182617 59.89710693 -35.99677734 59.89187012 -35.19824219 59.88647461 C-33.00716402 59.99963002 -31.10362139 60.39447552 -29 61 C-29.33 63.64 -29.66 66.28 -30 69 C-30.66 69 -31.32 69 -32 69 C-32 70.32 -32 71.64 -32 73 C-32.66 73 -33.32 73 -34 73 C-34.20625 73.556875 -34.4125 74.11375 -34.625 74.6875 C-38.17958098 80.66565891 -44.35900614 83.86333319 -50.8828125 85.61328125 C-58.44343922 86.99428133 -65.10887041 86.29819848 -72 83 C-72.72574219 82.68675781 -73.45148437 82.37351562 -74.19921875 82.05078125 C-78.23912469 80.21577909 -80.24692943 79.24101415 -82 75 C-82.66 75 -83.32 75 -84 75 C-84 74.34 -84 73.68 -84 73 C-84.66 73 -85.32 73 -86 73 C-86 71.68 -86 70.36 -86 69 C-86.66 69 -87.32 69 -88 69 C-92.36869671 58.5151279 -91.44638757 47.6719661 -87.625 37.25 C-83.65974762 29.31949523 -79.22896586 24.48148556 -71 21 C-61.6317422 17.98940676 -52.95758931 19.06979628 -44 23 C-38.44260903 25.98147997 -35.7568179 29.37609148 -33 35 C-32.67 30.38 -32.34 25.76 -32 21 C-29.03 20.67 -26.06 20.34 -23 20 C-23.04125 18.700625 -23.0825 17.40125 -23.125 16.0625 C-23.14055052 11.16408698 -22.2492718 6.71823189 -21 2 C-19.37753635 1.65453246 -17.75179539 1.32445781 -16.125 1 C-15.22007812 0.814375 -14.31515625 0.62875 -13.3828125 0.4375 C-8.95635753 -0.13497455 -4.4633206 0 0 0 Z M-63.375 38.8125 C-65.19877467 40.81340984 -65.19877467 40.81340984 -65 43 C-61.37 43 -57.74 43 -54 43 C-54.33 41.35 -54.66 39.7 -55 38 C-59.46555153 36.695104 -59.46555153 36.695104 -63.375 38.8125 Z " fill="#004470" transform="translate(935,462)"/>
<path d="M0 0 C2.4375 1.6875 2.4375 1.6875 4 3 C4.474375 2.401875 4.94875 1.80375 5.4375 1.1875 C9.39078107 -2.18725213 13.86610483 -3.84712706 19.08203125 -4.1015625 C24.14884379 -3.68182655 28.90357525 -2.03371589 33 1 C36.89762366 5.82990828 38.12915742 10.88692185 38.11352539 16.95214844 C38.11341209 18.42322052 38.11341209 18.42322052 38.11329651 19.92401123 C38.10813522 20.97518127 38.10297394 22.02635132 38.09765625 23.109375 C38.0962413 24.19132141 38.09482635 25.27326782 38.09336853 26.38800049 C38.08777318 29.8420285 38.0752215 33.29599159 38.0625 36.75 C38.0574844 39.09244698 38.0529216 41.43489498 38.04882812 43.77734375 C38.03865638 49.51827428 38.01907992 55.25906449 38 61 C30.08 61 22.16 61 14 61 C13.67 46.81 13.34 32.62 13 18 C11.68 18 10.36 18 9 18 C7.28311866 21.43376268 7.75490998 25.38114365 7.68359375 29.1640625 C7.66281265 30.07127045 7.64203156 30.97847839 7.62062073 31.91317749 C7.55512865 34.8170398 7.49624186 37.72099405 7.4375 40.625 C7.39431445 42.59115542 7.35070015 44.55730147 7.30664062 46.5234375 C7.19863907 51.34886539 7.09956323 56.17436101 7 61 C-0.92 61 -8.84 61 -17 61 C-17.33 46.48 -17.66 31.96 -18 17 C-19.65 17 -21.3 17 -23 17 C-23 31.52 -23 46.04 -23 61 C-30.92 61 -38.84 61 -47 61 C-47.78704325 57.06478373 -48.1221063 54.04679302 -48.11352539 50.1081543 C-48.11344986 48.94732834 -48.11337433 47.78650238 -48.11329651 46.59049988 C-48.10813522 45.34762711 -48.10297394 44.10475433 -48.09765625 42.82421875 C-48.0962413 41.54392288 -48.09482635 40.26362701 -48.09336853 38.9445343 C-48.08956397 35.5530296 -48.07975143 32.16156823 -48.06866455 28.77008057 C-48.05840597 25.30440863 -48.05386141 21.83872964 -48.04882812 18.37304688 C-48.03780755 11.5820101 -48.02054722 4.79101437 -48 -2 C-40.41 -2 -32.82 -2 -25 -2 C-25 -1.01 -25 -0.02 -25 1 C-24.29875 0.54625 -23.5975 0.0925 -22.875 -0.375 C-14.54727644 -5.08197418 -8.47216855 -4.15615816 0 0 Z " fill="#004470" transform="translate(186,485)"/>
<path d="M0 0 C0 0.66 0 1.32 0 2 C0.66 2 1.32 2 2 2 C7.57912542 12.14665922 6.28150981 25.14329501 6.20581055 36.36743164 C6.18729123 39.21965263 6.18530315 42.07155265 6.18554688 44.92382812 C6.18064007 46.73437783 6.17481545 48.54492534 6.16796875 50.35546875 C6.16685593 51.20948776 6.1657431 52.06350677 6.16459656 52.94340515 C6.1161347 58.8838653 6.1161347 58.8838653 5 60 C3.21928754 60.08726223 1.4351686 60.10699041 -0.34765625 60.09765625 C-1.31968994 60.09515869 -2.29172363 60.09266113 -3.29321289 60.09008789 C-4.53707764 60.08098389 -5.78094238 60.07187988 -7.0625 60.0625 C-11.001875 60.041875 -14.94125 60.02125 -19 60 C-19.33 45.48 -19.66 30.96 -20 16 C-21.65 16.33 -23.3 16.66 -25 17 C-26.13303294 21.60067823 -26.21867608 26.09103501 -26.31640625 30.80078125 C-26.33718735 31.63715622 -26.35796844 32.47353119 -26.37937927 33.33525085 C-26.44451034 35.99425421 -26.5035895 38.65335228 -26.5625 41.3125 C-26.60571992 43.12045231 -26.6493353 44.92839522 -26.69335938 46.73632812 C-26.80089485 51.15745663 -26.90023865 55.57866194 -27 60 C-34.92 60 -42.84 60 -51 60 C-51 39.21 -51 18.42 -51 -3 C-43.41 -3 -35.82 -3 -28 -3 C-27.67 -2.01 -27.34 -1.02 -27 0 C-26.484375 -0.45375 -25.96875 -0.9075 -25.4375 -1.375 C-16.63337179 -7.24441881 -8.62091938 -4.31045969 0 0 Z " fill="#004470" transform="translate(838,486)"/>
<path d="M0 0 C7.92 0 15.84 0 24 0 C25.19231274 3.57693822 25.1461202 6.84182553 25.125 10.5625 C25.13080078 11.59020508 25.13080078 11.59020508 25.13671875 12.63867188 C25.12669335 17.7466133 25.12669335 17.7466133 24 20 C19.21301295 21.60205779 14.13964122 20.88331208 9.1875 20.5625 C6.155625 20.376875 3.12375 20.19125 0 20 C0 13.4 0 6.8 0 0 Z " fill="#00426C" transform="translate(758,460)"/>
<path d="M0 0 C0.66 0.66 1.32 1.32 2 2 C-1.04681061 4.03120707 -1.60118324 4.24659875 -5.01171875 4.1953125 C-6.14770508 4.18564453 -6.14770508 4.18564453 -7.30664062 4.17578125 C-8.09232422 4.15902344 -8.87800781 4.14226563 -9.6875 4.125 C-10.48478516 4.11597656 -11.28207031 4.10695313 -12.10351562 4.09765625 C-14.069139 4.07411585 -16.03460775 4.03824547 -18 4 C-15.15801616 1.15801616 -12.95946334 1.62817088 -9 1.4375 C-4.33554482 1.37027255 -4.33554482 1.37027255 0 0 Z " fill="#EE8817" transform="translate(379,544)"/>
</svg>
