<svg width="96" height="96" xmlns="http://www.w3.org/2000/svg">

 <g>
  <title>Layer 1</title>
  <text font-style="normal" font-weight="normal" xml:space="preserve" text-anchor="start" font-family="sans-serif" font-size="24" id="svg_1" y="310.66666" x="184.33334" stroke-width="0" stroke="#000" fill="#000000">3k</text>
  <text font-weight="bold" xml:space="preserve" text-anchor="start" font-family="sans-serif" font-size="39" id="svg_2" y="65.36102" x="99.21147" stroke-width="0" stroke="#000" fill="#000000">100%</text>
  <path transform="rotate(-90.0912, 83.1723, 48.1891)" id="svg_7" d="m80.81093,55.38495l8.23588,-4.44447l-15.92368,0l-15.92365,0l0,-2.75134l0,-2.75134l15.74097,0c8.65752,0 15.74096,-0.13945 15.74096,-0.30989c0,-0.17044 -3.44653,-2.17045 -7.65895,-4.44447l-7.65898,-4.13458l7.07923,0l7.07921,0l10.81155,5.82571l10.81155,5.82571l-10.83229,5.81456l-10.83228,5.81456l-7.45271,0l-7.45273,0l8.23591,-4.44447l0,0z" stroke-width="0" stroke="#000" fill="#000000"/>
  <path id="svg_8" d="m142.74637,53.91293l0.23624,-0.23705l-0.45676,0l-0.45675,0l0,-0.14674l0,-0.14674l0.45151,0c0.24833,0 0.45151,-0.00744 0.45151,-0.01653c0,-0.00909 -0.09886,-0.11576 -0.21969,-0.23705l-0.21969,-0.22052l0.20306,0l0.20306,0l0.31012,0.31071l0.31012,0.31071l-0.31071,0.31012l-0.31071,0.31012l-0.21377,0l-0.21377,0l0.23624,-0.23705l0,0z" stroke-width="0" stroke="#000" fill="#000000"/>
  <text xml:space="preserve" text-anchor="start" font-family="sans-serif" font-size="84" id="svg_10" y="74.19318" x="12.22977" stroke-width="0" stroke="#000" fill="#000000">k</text>
 </g>
</svg>