<svg width="96" height="96" xmlns="http://www.w3.org/2000/svg">

 <g>
  <title>Layer 1</title>
  <text font-style="normal" font-weight="normal" xml:space="preserve" text-anchor="start" font-family="sans-serif" font-size="24" id="svg_1" y="310.66666" x="184.33334" stroke-width="0" stroke="#000" fill="#000000">3k</text>
  <text font-weight="bold" xml:space="preserve" text-anchor="start" font-family="sans-serif" font-size="39" id="svg_2" y="65.36102" x="99.21147" stroke-width="0" stroke="#000" fill="#000000">100%</text>
  <path id="svg_6" d="m34.63817,30.1303c-9.75581,0 -17.65689,7.62942 -17.65689,17.0498c0,9.41388 7.90108,17.04764 17.65689,17.04764c9.74684,0 17.6524,-7.63375 17.6524,-17.04764c0.00224,-9.42038 -7.90108,-17.0498 -17.6524,-17.0498zm0,29.76839c-7.27537,-0.01732 -13.15576,-5.69554 -13.1737,-12.71643c0.0157,-7.02305 5.89834,-12.70343 13.1737,-12.72076c7.27088,0.01732 13.15128,5.6977 13.16698,12.72076c-0.0157,7.02089 -5.8961,12.6991 -13.16698,12.71643zm0,-30.90967c1.24022,0 2.24271,-0.97019 2.24271,-2.16777l0,-10.50535c-0.00449,-1.19758 -1.00474,-2.1656 -2.24271,-2.1656c-1.24022,0 -2.24496,0.97236 -2.24271,2.16994l0,10.50318c0,1.19325 1.00249,2.1656 2.24271,2.1656zm7.20584,1.38166c0.28034,0.11478 0.57189,0.16459 0.85672,0.16675c0.88363,0 1.71568,-0.50459 2.07451,-1.33834l4.16248,-9.7084c0.47097,-1.10662 -0.06952,-2.37134 -1.21331,-2.82828c-1.14603,-0.45694 -2.45801,0.06713 -2.93347,1.17159l-4.16024,9.71057c-0.47321,1.10446 0.06952,2.37134 1.21331,2.82611zm6.1114,3.94357c0.43733,0.42013 1.01146,0.63452 1.5856,0.63452s1.14827,-0.21223 1.5856,-0.63452l7.69251,-7.43452c0.8769,-0.84459 0.87466,-2.21541 0,-3.06433c-0.87914,-0.84459 -2.29878,-0.84459 -3.17344,0.00433l-7.69027,7.43019c-0.8769,0.84675 -0.8769,2.21758 0,3.06433zm4.08847,5.89911c0.35435,0.83376 1.19088,1.33618 2.07003,1.33618c0.28482,0 0.57638,-0.05414 0.85896,-0.16892l10.04736,-4.02153c1.14603,-0.45694 1.68876,-1.72599 1.21331,-2.83044s-1.7852,-1.62853 -2.93123,-1.16943l-10.0496,4.02153c-1.14378,0.45911 -1.68428,1.72815 -1.20882,2.83261zm14.55297,4.78815l-10.87941,0.00217c-1.23798,0 -2.24271,0.97019 -2.23823,2.16777c0,1.19758 1.00249,2.16344 2.23823,2.16344l10.88165,-0.00433c1.24022,0 2.24047,-0.97236 2.24047,-2.1656c0,-1.19758 -1.00474,-2.16777 -2.24271,-2.16344zm-1.56541,11.97146l-10.05185,-4.01503c-1.14827,-0.45911 -2.46026,0.06497 -2.93123,1.17159c-0.47321,1.10662 0.06952,2.3735 1.21331,2.83261l10.05185,4.01503c0.28258,0.11045 0.57413,0.16242 0.85896,0.16242c0.88139,0 1.71568,-0.50242 2.07451,-1.33618c0.47097,-1.10662 -0.07401,-2.37567 -1.21555,-2.83044zm-13.89137,3.06c-0.8769,-0.84675 -2.2943,-0.84675 -3.1712,0.00217c-0.8769,0.84459 -0.87466,2.21325 0,3.06l7.70148,7.42586c0.43733,0.42229 1.00922,0.63452 1.58336,0.63452s1.15051,-0.21223 1.58784,-0.63452c0.8769,-0.84892 0.87242,-2.21974 0,-3.06433l-7.70148,-7.42369zm-6.34912,5.11732c-0.47321,-1.10662 -1.7852,-1.62853 -2.93123,-1.17159c-1.14378,0.45911 -1.68652,1.72599 -1.21107,2.83261l4.17145,9.70191c0.35659,0.83376 1.19088,1.33618 2.07451,1.33618c0.28707,0 0.57862,-0.05197 0.85896,-0.16459c1.14603,-0.45694 1.68652,-1.72599 1.21107,-2.83478l-4.17369,-9.69974zm-10.13034,0.22306c-1.24022,0 -2.24271,0.97019 -2.24271,2.1656l0.00897,10.50535c0,1.19758 1.00698,2.16344 2.24271,2.16344c1.24022,0 2.24271,-0.97019 2.23823,-2.1656l-0.00673,-10.50751c0,-1.19108 -1.00698,-2.16344 -2.24047,-2.16127zm-7.21257,-1.37732c-1.14378,-0.45478 -2.45353,0.06713 -2.92898,1.17592l-4.15351,9.7084c-0.47097,1.10662 0.07401,2.3735 1.21779,2.83044c0.28034,0.11261 0.56965,0.16459 0.85672,0.16459c0.87914,0 1.71568,-0.50675 2.07227,-1.34051l4.15575,-9.71273c0.47321,-1.10446 -0.07401,-2.36917 -1.22004,-2.82611zm-6.11364,-3.9349c-0.87914,-0.84675 -2.29878,-0.84242 -3.17344,0.00433l-7.68354,7.43452c-0.8769,0.84892 -0.87242,2.21541 0.00449,3.06433c0.43733,0.42013 1.00922,0.63236 1.58336,0.63236c0.57638,0 1.15051,-0.21223 1.58784,-0.63452l7.68578,-7.43668c0.87242,-0.84675 0.87242,-2.21758 -0.00449,-3.06433zm-4.09071,-5.89261c-0.4777,-1.10229 -1.78744,-1.62637 -2.93123,-1.16943l-10.04512,4.03019c-1.14603,0.45911 -1.68652,1.72815 -1.21107,2.83261c0.35883,0.83376 1.19088,1.33401 2.07227,1.33401c0.28482,0 0.57862,-0.05197 0.85896,-0.16459l10.04512,-4.03019c1.14154,-0.46344 1.68428,-1.73032 1.21107,-2.83261zm-1.44879,-6.95592c0,-1.19758 -1.00249,-2.16344 -2.24271,-2.16344l-10.87941,0.01299c-1.24022,0 -2.24496,0.97019 -2.24047,2.16777c0.00224,1.19325 1.00698,2.1656 2.24271,2.16127l10.88165,-0.01299c1.23798,0 2.24271,-0.97452 2.23823,-2.1656zm-11.56343,-9.79503l10.05857,4.00637c0.28034,0.11478 0.56965,0.16459 0.85447,0.16459c0.88139,0 1.71792,-0.50242 2.07451,-1.33834c0.47546,-1.10662 -0.07177,-2.37567 -1.22004,-2.82828l-10.05409,-4.00637c-1.14603,-0.45478 -2.45577,0.0693 -2.92898,1.17376c-0.47546,1.10662 0.07401,2.36917 1.21555,2.82828zm13.88913,-3.07083c0.43733,0.41796 1.00698,0.63019 1.58111,0.63019s1.15051,-0.21223 1.59008,-0.63885c0.8769,-0.84242 0.87242,-2.21541 -0.00897,-3.06216l-7.70148,-7.41503c-0.87466,-0.84459 -2.29878,-0.84025 -3.1712,0.0065c-0.8769,0.84459 -0.87242,2.21758 0.00449,3.06216l7.70597,7.41719zm6.34015,-5.12599c0.35883,0.83159 1.19312,1.33185 2.07003,1.33185c0.28707,0 0.57862,-0.05414 0.8612,-0.16675c1.14378,-0.45911 1.68876,-1.72815 1.21107,-2.83044l-4.18042,-9.69974c-0.47546,-1.10446 -1.78969,-1.62637 -2.93347,-1.16726c-1.14378,0.46127 -1.68428,1.73032 -1.20882,2.83261l4.18042,9.69974z" stroke-width="0" stroke="#000" fill="#000000"/>
  <path transform="rotate(-89.7699, 83.1723, 48.1891)" id="svg_7" d="m80.81093,55.38495l8.23588,-4.44447l-15.92368,0l-15.92365,0l0,-2.75134l0,-2.75134l15.74097,0c8.65752,0 15.74096,-0.13945 15.74096,-0.30989c0,-0.17044 -3.44653,-2.17045 -7.65895,-4.44447l-7.65898,-4.13458l7.07923,0l7.07921,0l10.81155,5.82571l10.81155,5.82571l-10.83229,5.81456l-10.83228,5.81456l-7.45271,0l-7.45273,0l8.23591,-4.44447l0,0z" stroke-width="0" stroke="#000" fill="#000000"/>
  <path id="svg_8" d="m142.74637,53.91293l0.23624,-0.23705l-0.45676,0l-0.45675,0l0,-0.14674l0,-0.14674l0.45151,0c0.24833,0 0.45151,-0.00744 0.45151,-0.01653c0,-0.00909 -0.09886,-0.11576 -0.21969,-0.23705l-0.21969,-0.22052l0.20306,0l0.20306,0l0.31012,0.31071l0.31012,0.31071l-0.31071,0.31012l-0.31071,0.31012l-0.21377,0l-0.21377,0l0.23624,-0.23705l0,0z" stroke-width="0" stroke="#000" fill="#000000"/>
 </g>
</svg>