<svg width="96" height="96" xmlns="http://www.w3.org/2000/svg">

 <g>
  <title>Layer 1</title>
  <text font-style="normal" font-weight="normal" xml:space="preserve" text-anchor="start" font-family="sans-serif" font-size="24" id="svg_1" y="310.66666" x="184.33334" stroke-width="0" stroke="#000" fill="#000000">3k</text>
  <text font-weight="bold" xml:space="preserve" text-anchor="start" font-family="sans-serif" font-size="39" id="svg_2" y="65.36102" x="99.21147" stroke-width="0" stroke="#000" fill="#000000">100%</text>
  <path id="svg_8" d="m142.74637,53.91293l0.23624,-0.23705l-0.45676,0l-0.45675,0l0,-0.14674l0,-0.14674l0.45151,0c0.24833,0 0.45151,-0.00744 0.45151,-0.01653c0,-0.00909 -0.09886,-0.11576 -0.21969,-0.23705l-0.21969,-0.22052l0.20306,0l0.20306,0l0.31012,0.31071l0.31012,0.31071l-0.31071,0.31012l-0.31071,0.31012l-0.21377,0l-0.21377,0l0.23624,-0.23705l0,0z" stroke-width="0" stroke="#000" fill="#000000"/>
  <path id="svg_12" d="m58.88238,88.79178l0,0c-26.38619,0 -47.78066,-18.81709 -47.78066,-42.03654c0,-23.21647 21.39447,-42.03654 47.78066,-42.03654l0,0c-15.0375,9.92315 -23.88869,25.49796 -23.88869,42.03654s8.85119,32.11042 23.88869,42.03654z" stroke-width="0" stroke="#000" fill="#000000"/>
  <path id="svg_13" d="m53.74803,41.6649l11.96768,0l3.69811,-10.17249l3.69811,10.17249l11.96768,0l-9.68204,6.28687l3.6983,10.17249l-9.68205,-6.28704l-9.68204,6.28704l3.6983,-10.17249l-9.68205,-6.28687z" stroke-width="0" stroke="#000" fill="#000000"/>
 </g>
</svg>