<svg width="96" height="96" xmlns="http://www.w3.org/2000/svg">

 <g>
  <title>Layer 1</title>
  <text font-style="normal" font-weight="normal" xml:space="preserve" text-anchor="start" font-family="sans-serif" font-size="24" id="svg_1" y="310.66666" x="184.33334" stroke-width="0" stroke="#000" fill="#000000">3k</text>
  <text font-weight="bold" xml:space="preserve" text-anchor="start" font-family="sans-serif" font-size="39" id="svg_2" y="65.36102" x="99.21147" stroke-width="0" stroke="#000" fill="#000000">100%</text>
  <path id="svg_8" d="m142.74637,53.91293l0.23624,-0.23705l-0.45676,0l-0.45675,0l0,-0.14674l0,-0.14674l0.45151,0c0.24833,0 0.45151,-0.00744 0.45151,-0.01653c0,-0.00909 -0.09886,-0.11576 -0.21969,-0.23705l-0.21969,-0.22052l0.20306,0l0.20306,0l0.31012,0.31071l0.31012,0.31071l-0.31071,0.31012l-0.31071,0.31012l-0.21377,0l-0.21377,0l0.23624,-0.23705l0,0z" stroke-width="0" stroke="#000" fill="#000000"/>
  <path id="svg_11" d="m66.74384,16.01548c-3.03318,-1.38942 -6.68644,-0.19642 -8.16484,2.67773c-1.4723,2.87415 -0.2016,6.32892 2.83158,7.72122c9.51496,4.37911 16.08227,13.59085 16.07616,24.2671c-0.03055,14.88783 -12.76807,26.93328 -28.50823,26.95927c-15.74321,-0.02889 -28.48074,-12.07433 -28.51128,-26.95927c-0.00611,-10.68203 6.56425,-19.90243 16.08838,-24.27288c3.03929,-1.3923 4.30082,-4.84707 2.83158,-7.72122c-1.4723,-2.86838 -5.11945,-4.07003 -8.15874,-2.67773c-13.59891,6.22493 -22.97642,19.42004 -22.98253,34.67183c0.00611,21.27163 18.23268,38.51077 40.73259,38.51655c22.49685,-0.00578 40.72648,-17.24492 40.72953,-38.51655c-0.00611,-15.24601 -9.3714,-28.43246 -22.9642,-34.66605zm-17.76533,28.40646c3.37224,0 6.10607,-2.58241 6.10607,-5.77719l0,-26.96216c0,-3.1919 -2.73383,-5.7743 -6.10607,-5.7743c-3.37835,0 -6.10912,2.58529 -6.10912,5.7743l0,26.95927c0,3.19479 2.73078,5.78008 6.10912,5.78008z" stroke-width="0" stroke="#000" fill="#000000"/>
 </g>
</svg>